<svg xmlns="http://www.w3.org/2000/svg" width="33.891" height="30.125" viewBox="0 0 33.891 30.125">
    <path data-name="Icon awesome-house-damage" d="M16.945 6.764 4.087 18.105a2.722 2.722 0 0 1-.322.2v10.879a.941.941 0 0 0 .941.941h8.78L11.3 25.841l6.126-3.766-3.54-7.015 8.711 8.048-6.126 3.766 2.349 3.251h10.364a.941.941 0 0 0 .941-.941V18.3a2.745 2.745 0 0 1-.309-.188zM33.578 13.9l-3.453-3.05V2.824a.941.941 0 0 0-.941-.941h-3.766a.941.941 0 0 0-.941.941v3.042L18.519.607a2.345 2.345 0 0 0-3.145 0L.312 13.9a.942.942 0 0 0-.071 1.33l1.259 1.4a.942.942 0 0 0 1.33.071L16.323 4.8a.942.942 0 0 1 1.246 0l13.492 11.9a.942.942 0 0 0 1.33-.071l1.259-1.4a.941.941 0 0 0-.072-1.329z" style="fill:#d5b276"/>
</svg>
