<svg xmlns="http://www.w3.org/2000/svg" width="98.458" height="98.467" viewBox="0 0 98.458 98.467">
  <g id="church" transform="translate(-0.024)">
    <path id="Path_3605" data-name="Path 3605" d="M136.873,11.6l5.785.021.021-5.792-5.789-.021L136.91.019,131.119,0,131.1,5.79l-5.795-.021-.021,5.792,5.8.021-.023,7.3L105.024,39.134V98.467H119.5V79.23a14.817,14.817,0,1,1,29.634,0V98.467h13.8V39.134L136.85,18.842Zm5.8,31.843a8.687,8.687,0,1,1-8.687-8.687A8.7,8.7,0,0,1,142.67,43.446Z" transform="translate(-84.729)" fill="#d5b276"/>
    <path id="Path_3606" data-name="Path 3606" d="M219.049,363.651a9.036,9.036,0,0,0-9.025,9.025v19.237h18.051V372.676A9.036,9.036,0,0,0,219.049,363.651Z" transform="translate(-169.459 -293.447)" fill="#d5b276"/>
    <path id="Path_3607" data-name="Path 3607" d="M.024,333.262H14.5V290.968L.024,302.941Z" transform="translate(0 -234.795)" fill="#d5b276"/>
    <path id="Path_3608" data-name="Path 3608" d="M435.024,290.969v42.294H449.5V302.942Z" transform="translate(-351.021 -234.796)" fill="#d5b276"/>
    <circle id="Ellipse_42" data-name="Ellipse 42" cx="2.896" cy="2.896" r="2.896" transform="translate(46.357 40.551)" fill="#d5b276"/>
  </g>
</svg>
