<svg xmlns="http://www.w3.org/2000/svg" width="77.609" height="98.113" viewBox="0 0 77.609 98.113">
  <g id="cocktail" transform="translate(-53.5)">
    <path id="Path_3596" data-name="Path 3596" d="M72.816,0H53.5V5.749H68.677L74.426,23h6.036Z" fill="#d5b276"/>
    <path id="Path_3597" data-name="Path 3597" d="M168.7,230.122a19.869,19.869,0,0,0-1.684-8.008l-.006-.006a17.159,17.159,0,0,1-.848-10.521c.117-.54.3-1.053.441-1.586H130.525a20.741,20.741,0,0,1-.727,12.89,20.028,20.028,0,0,0,15.9,27.087v12.146H131.33v5.749h34.493v-5.749H151.451V249.969A20.022,20.022,0,0,0,168.7,230.122Z" transform="translate(-60.583 -169.759)" fill="#d5b276"/>
    <path id="Path_3598" data-name="Path 3598" d="M111.155,131.5h10.29L117.594,120H106.9Z" transform="translate(-43.168 -97.005)" fill="#d5b276"/>
    <path id="Path_3599" data-name="Path 3599" d="M221.737,131.5l4.254-11.5H194.2l3.852,11.5Z" transform="translate(-113.738 -97.005)" fill="#d5b276"/>
    <path id="Path_3600" data-name="Path 3600" d="M277.135,30a20.093,20.093,0,0,0-18.1,11.5h27.635l-8.578,23.071a20.987,20.987,0,0,0-.747,2.723,13.813,13.813,0,0,0-.227,2.956c.016,0,.032.006.047.006a20.123,20.123,0,0,0,20.093-20.132A20.145,20.145,0,0,0,277.135,30Z" transform="translate(-166.146 -24.251)" fill="#d5b276"/>
  </g>
</svg>
