<svg id="Page-1" xmlns="http://www.w3.org/2000/svg" width="98.113" height="98.113" viewBox="0 0 98.113 98.113">
  <g id="_031---University" data-name="031---University">
    <path id="Rectangle-path" d="M25,40H35.512V59.272H25Z" transform="translate(18.801 30.081)" fill="#d5b276"/>
    <path id="Rectangle-path-2" data-name="Rectangle-path" d="M0,53H22.776v3.5H0Z" transform="translate(0 39.857)" fill="#d5b276"/>
    <path id="Rectangle-path-3" data-name="Rectangle-path" d="M15,25H60.553v3.5H15Z" transform="translate(11.28 18.801)" fill="#d5b276"/>
    <path id="Shape" d="M21.56,26.5a3.5,3.5,0,0,1-3.5-3.5H6.2a1.742,1.742,0,0,0-1.566.969l-3.02,6.039H21.56Z" transform="translate(1.217 17.297)" fill="#d5b276"/>
    <path id="Shape-2" data-name="Shape" d="M55.545,67.545V29H17V67.545H27.512V46.52a1.752,1.752,0,0,1,1.752-1.752H43.28a1.752,1.752,0,0,1,1.752,1.752V67.545ZM32.768,37.76a1.752,1.752,0,1,1-3.5,0v-3.5a1.752,1.752,0,0,1,3.5,0Zm10.512,0a1.752,1.752,0,0,1-3.5,0v-3.5a1.752,1.752,0,0,1,3.5,0Z" transform="translate(12.784 21.809)" fill="#d5b276"/>
    <path id="Shape-3" data-name="Shape" d="M55.735,15.513A1.752,1.752,0,0,0,54.495,15H20.8a1.752,1.752,0,0,0-1.346.631l-5.316,6.377H62.23Z" transform="translate(10.63 11.28)" fill="#d5b276"/>
    <path id="Shape-4" data-name="Shape" d="M60.553,6.146h.023L37.776,0,15,6.118l22.785,6.146Z" transform="translate(11.28)" fill="#d5b276"/>
    <path id="Shape-5" data-name="Shape" d="M43,30.008H62.942l-3.02-6.039A1.742,1.742,0,0,0,58.355,23H46.5A3.5,3.5,0,0,1,43,26.5Z" transform="translate(32.337 17.297)" fill="#d5b276"/>
    <path id="Shape-6" data-name="Shape" d="M33.116,10.444,20,6.922V17.571H48.032V6.922L34.917,10.444A3.464,3.464,0,0,1,33.116,10.444Z" transform="translate(15.04 5.206)" fill="#d5b276"/>
    <path id="Rectangle-path-4" data-name="Rectangle-path" d="M13,21H65.561v3.5H13Z" transform="translate(9.776 15.792)" fill="#d5b276"/>
    <path id="Shape-7" data-name="Shape" d="M25.528,29H1V67.545H25.528ZM9.76,60.536a1.752,1.752,0,1,1-3.5,0v-3.5a1.752,1.752,0,0,1,3.5,0Zm0-10.512a1.752,1.752,0,1,1-3.5,0v-3.5a1.752,1.752,0,0,1,3.5,0Zm0-10.512a1.752,1.752,0,1,1-3.5,0v-3.5a1.752,1.752,0,0,1,3.5,0ZM20.272,60.536a1.752,1.752,0,1,1-3.5,0v-3.5a1.752,1.752,0,0,1,3.5,0Zm0-10.512a1.752,1.752,0,1,1-3.5,0v-3.5a1.752,1.752,0,0,1,3.5,0Zm0-10.512a1.752,1.752,0,1,1-3.5,0v-3.5a1.752,1.752,0,0,1,3.5,0Z" transform="translate(0.752 21.809)" fill="#d5b276"/>
    <path id="Rectangle-path-5" data-name="Rectangle-path" d="M43,53H65.776v3.5H43Z" transform="translate(32.337 39.857)" fill="#d5b276"/>
    <path id="Shape-8" data-name="Shape" d="M44.784,53H15v5.256H60.554l0-5.256Z" transform="translate(11.28 39.857)" fill="#d5b276"/>
    <path id="Shape-9" data-name="Shape" d="M65.528,29H41V67.545H65.528ZM49.76,60.536a1.752,1.752,0,1,1-3.5,0v-3.5a1.752,1.752,0,1,1,3.5,0Zm0-10.512a1.752,1.752,0,1,1-3.5,0v-3.5a1.752,1.752,0,0,1,3.5,0Zm0-10.512a1.752,1.752,0,1,1-3.5,0v-3.5a1.752,1.752,0,1,1,3.5,0ZM60.272,60.536a1.752,1.752,0,1,1-3.5,0v-3.5a1.752,1.752,0,0,1,3.5,0Zm0-10.512a1.752,1.752,0,1,1-3.5,0v-3.5a1.752,1.752,0,0,1,3.5,0Zm0-10.512a1.752,1.752,0,1,1-3.5,0v-3.5a1.752,1.752,0,1,1,3.5,0Z" transform="translate(30.833 21.809)" fill="#d5b276"/>
    <path id="Shape-10" data-name="Shape" d="M42.582,5.54h-3.5v6.547a5.37,5.37,0,0,0,2.4,4.476,1.752,1.752,0,0,0,1.945-2.915,1.871,1.871,0,0,1-.836-1.561V5.54Z" transform="translate(29.388 4.166)" fill="#d5b276"/>
  </g>
</svg>
