<svg id="hospital" xmlns="http://www.w3.org/2000/svg" width="98.289" height="98.289" viewBox="0 0 98.289 98.289">
  <g id="Group_308" data-name="Group 308" transform="translate(0 35.782)">
    <path id="Path_3601" data-name="Path 3601" d="M12.871,186.392H2.88A2.88,2.88,0,0,0,0,189.272V248.9H12.871Z" transform="translate(0 -186.392)" fill="#d5b276"/>
    <path id="Path_3602" data-name="Path 3602" d="M454.944,186.392h-9.992V248.9h12.871V189.272A2.88,2.88,0,0,0,454.944,186.392Z" transform="translate(-359.534 -186.392)" fill="#d5b276"/>
  </g>
  <g id="Group_309" data-name="Group 309" transform="translate(18.63)">
    <path id="Path_3603" data-name="Path 3603" d="M0,0H19.241V10.015H0Z" transform="translate(35.522 79.048) rotate(90)" fill="#d5b276"/>
    <path id="Path_3604" data-name="Path 3604" d="M155.2,11.827h-9.066V2.88A2.88,2.88,0,0,0,143.252,0H112.281a2.88,2.88,0,0,0-2.88,2.88v8.948H99.928a2.88,2.88,0,0,0-2.88,2.88V98.289H116.8V76.169a2.88,2.88,0,0,1,2.88-2.88h15.774a2.88,2.88,0,0,1,2.88,2.88v22.12h19.748V14.707a2.88,2.88,0,0,0-2.88-2.88ZM114.523,63.338h-3.1a2.88,2.88,0,0,1,0-5.759h3.1a2.88,2.88,0,0,1,0,5.759Zm0-11.518h-3.1a2.88,2.88,0,0,1,0-5.759h3.1a2.88,2.88,0,0,1,0,5.759Zm0-11.518h-3.1a2.88,2.88,0,0,1,0-5.759h3.1a2.88,2.88,0,0,1,0,5.759Zm14.59,23.036h-3.1a2.88,2.88,0,0,1,0-5.759h3.1a2.88,2.88,0,0,1,0,5.759Zm0-11.518h-3.1a2.88,2.88,0,0,1,0-5.759h3.1a2.88,2.88,0,0,1,0,5.759Zm0-11.518h-3.1a2.88,2.88,0,0,1,0-5.759h3.1a2.88,2.88,0,0,1,0,5.759Zm4.253-17.221h-2.924V26a2.88,2.88,0,1,1-5.759,0V23.081h-2.924a2.88,2.88,0,0,1,0-5.759h2.924V14.4a2.88,2.88,0,1,1,5.759,0v2.924h2.924a2.88,2.88,0,1,1,0,5.759ZM143.7,63.338h-3.1a2.88,2.88,0,0,1,0-5.759h3.1a2.88,2.88,0,0,1,0,5.759Zm0-11.518h-3.1a2.88,2.88,0,0,1,0-5.759h3.1a2.88,2.88,0,0,1,0,5.759Zm0-11.518h-3.1a2.88,2.88,0,0,1,0-5.759h3.1a2.88,2.88,0,0,1,0,5.759Z" transform="translate(-97.048)" fill="#d5b276"/>
  </g>
</svg>
