<svg xmlns="http://www.w3.org/2000/svg" width="98.101" height="98.101" viewBox="0 0 98.101 98.101">
  <g id="hotel" transform="translate(-2 -2)">
    <path id="Path_3609" data-name="Path 3609" d="M14,23H28.014V47.525H14Z" transform="translate(30.043 52.575)" fill="#d5b276"/>
    <path id="Path_3610" data-name="Path 3610" d="M96.6,93.093H89.59V23.022a3.31,3.31,0,0,0-3.5-3.5h-3.5V5.5a3.31,3.31,0,0,0-3.5-3.5H23.022a3.31,3.31,0,0,0-3.5,3.5V19.518h-3.5a3.31,3.31,0,0,0-3.5,3.5V93.093H5.5a3.5,3.5,0,0,0,0,7.007H37.036V72.072a3.31,3.31,0,0,1,3.5-3.5H61.561a3.31,3.31,0,0,1,3.5,3.5V100.1H96.6a3.5,3.5,0,0,0,0-7.007ZM72.072,30.029a3.31,3.31,0,0,1,3.5,3.5V40.54a3.5,3.5,0,0,1-7.007,0V33.532A3.31,3.31,0,0,1,72.072,30.029ZM30.029,82.583a3.31,3.31,0,0,1-3.5,3.5,3.31,3.31,0,0,1-3.5-3.5V75.575a3.31,3.31,0,0,1,3.5-3.5,3.31,3.31,0,0,1,3.5,3.5Zm3.5-21.022a3.31,3.31,0,0,1-3.5,3.5,3.31,3.31,0,0,1-3.5-3.5V54.554a3.31,3.31,0,0,1,3.5-3.5,3.31,3.31,0,0,1,3.5,3.5Zm0-21.022a3.31,3.31,0,0,1-3.5,3.5,3.31,3.31,0,0,1-3.5-3.5V33.532a3.31,3.31,0,0,1,3.5-3.5,3.31,3.31,0,0,1,3.5,3.5Zm3.5-14.014a3.31,3.31,0,0,1-3.5-3.5V16.014a3.31,3.31,0,0,1,3.5-3.5,3.31,3.31,0,0,1,3.5,3.5v7.007A3.31,3.31,0,0,1,37.036,26.525ZM47.547,61.561a3.5,3.5,0,1,1-7.007,0V54.554a3.5,3.5,0,0,1,7.007,0Zm0-21.022a3.5,3.5,0,0,1-7.007,0V33.532a3.5,3.5,0,0,1,7.007,0Zm3.5-14.014a3.31,3.31,0,0,1-3.5-3.5V16.014a3.5,3.5,0,1,1,7.007,0v7.007A3.31,3.31,0,0,1,51.05,26.525ZM61.561,61.561a3.5,3.5,0,1,1-7.007,0V54.554a3.5,3.5,0,0,1,7.007,0Zm0-21.022a3.5,3.5,0,0,1-7.007,0V33.532a3.5,3.5,0,0,1,7.007,0Zm3.5-14.014a3.31,3.31,0,0,1-3.5-3.5V16.014a3.5,3.5,0,0,1,7.007,0v7.007A3.31,3.31,0,0,1,65.065,26.525Zm3.5,35.036V54.554a3.5,3.5,0,0,1,7.007,0v7.007a3.5,3.5,0,0,1-7.007,0ZM79.079,82.583a3.5,3.5,0,0,1-7.007,0V75.575a3.5,3.5,0,0,1,7.007,0Z" fill="#d5b276"/>
  </g>
</svg>
