<svg xmlns="http://www.w3.org/2000/svg" width="100.576" height="98.351" viewBox="0 0 100.576 98.351">
  <g id="private-garage" transform="translate(0 -2.789)">
    <path id="Path_3594" data-name="Path 3594" d="M106.024,129.375a5.017,5.017,0,0,0-1.332.186l-1.687.465-2.485-6.053a10.731,10.731,0,0,0-9.18-6.154H64.065a10.731,10.731,0,0,0-9.18,6.155L52.4,130.015l-1.647-.454a5.017,5.017,0,0,0-1.332-.186,3.632,3.632,0,0,0-3.777,3.733,4.715,4.715,0,0,0,3.67,4.473,38.073,38.073,0,0,0-2.058,11.143V161.6a4.992,4.992,0,0,0,4.987,4.987h1.828a4.992,4.992,0,0,0,4.987-4.987v-2.41H96.341v2.41a4.992,4.992,0,0,0,4.987,4.987h1.829a4.992,4.992,0,0,0,4.987-4.987V148.723a38.089,38.089,0,0,0-2.055-11.133,4.718,4.718,0,0,0,3.712-4.482A3.632,3.632,0,0,0,106.024,129.375ZM55.5,134.4l4.054-9.876a6.449,6.449,0,0,1,5.5-3.691H90.343a6.449,6.449,0,0,1,5.5,3.691L99.9,134.4a2.489,2.489,0,0,1-2.474,3.691H57.979A2.489,2.489,0,0,1,55.5,134.4ZM66.253,150.46a2,2,0,0,1-1.995,1.995H55.984a2,2,0,0,1-1.995-1.995v-3.3a2,2,0,0,1,1.995-1.995h8.274a2,2,0,0,1,1.995,1.995Zm35.073,0a2,2,0,0,1-1.995,1.995H91.058a2,2,0,0,1-1.995-1.995v-3.3a2,2,0,0,1,1.995-1.995h8.273a2,2,0,0,1,1.995,1.995Z" transform="translate(-27.437 -69.137)" fill="#d5b276"/>
    <path id="Path_3595" data-name="Path 3595" d="M98.362,30.217,52.513,3.342a4.755,4.755,0,0,0-4.451,0L2.214,30.217A4.817,4.817,0,0,0,0,34.081V98.147a3,3,0,0,0,2.992,2.992H8.144a3,3,0,0,0,2.992-2.992V43.933a1,1,0,0,1,1-1H88.442a1,1,0,0,1,1,1V98.147a3,3,0,0,0,2.992,2.992h5.152a3,3,0,0,0,2.992-2.992V34.081A4.816,4.816,0,0,0,98.362,30.217Z" fill="#d5b276"/>
  </g>
</svg>
