<svg xmlns="http://www.w3.org/2000/svg" xmlns:xlink="http://www.w3.org/1999/xlink" width="162.233" height="56.578" viewBox="0 0 162.233 56.578">
  <defs>
    <clipPath id="clip-path">
      <rect id="Rectangle_198" data-name="Rectangle 198" width="9.392" height="14.98"/>
    </clipPath>
    <clipPath id="clip-path-2">
      <rect id="Rectangle_199" data-name="Rectangle 199" width="7.33" height="13.804"/>
    </clipPath>
  </defs>
  <g id="FCBI_1_" data-name="FCBI (1)" transform="translate(-319.3 -461.83)">
    <g id="Group_161" data-name="Group 161" transform="translate(365.849 512.997)">
      <path id="Path_104" data-name="Path 104" d="M6.666-11.052,5.335-7.035H4.543L3.55-10.008,2.54-7.035h-.8L.411-11.052h.775L2.184-8l1.039-3.053h.689l1.016,3.07,1.027-3.07Zm2.364.918a1.281,1.281,0,0,1,.93.339,1.336,1.336,0,0,1,.35,1v1.756H9.593V-8.7A.86.86,0,0,0,9.4-9.3a.7.7,0,0,0-.539-.2.828.828,0,0,0-.626.238.949.949,0,0,0-.23.686v1.549H7.292v-4.258h.717v1.549a1.167,1.167,0,0,1,.439-.29A1.611,1.611,0,0,1,9.031-10.134Zm5.1,1.584q0,.075-.011.212h-2.4a.833.833,0,0,0,.33.537,1.082,1.082,0,0,0,.663.2,1.117,1.117,0,0,0,.832-.333l.384.442a1.3,1.3,0,0,1-.522.373,1.9,1.9,0,0,1-.712.126,1.894,1.894,0,0,1-.89-.2,1.447,1.447,0,0,1-.594-.56A1.58,1.58,0,0,1,11-8.567a1.6,1.6,0,0,1,.2-.806,1.445,1.445,0,0,1,.565-.56,1.649,1.649,0,0,1,.815-.2,1.608,1.608,0,0,1,.8.2,1.4,1.4,0,0,1,.551.557A1.688,1.688,0,0,1,14.132-8.55ZM12.583-9.56a.865.865,0,0,0-.582.2.857.857,0,0,0-.29.542h1.739a.846.846,0,0,0-.281-.539A.855.855,0,0,0,12.583-9.56ZM15.5-9.652a1.2,1.2,0,0,1,1.09-.482v.683a.911.911,0,0,0-.166-.017.866.866,0,0,0-.654.244.973.973,0,0,0-.235.7v1.486h-.717V-10.1H15.5Zm4.551,1.1q0,.075-.011.212h-2.4a.833.833,0,0,0,.33.537,1.082,1.082,0,0,0,.663.2,1.117,1.117,0,0,0,.832-.333l.384.442a1.3,1.3,0,0,1-.522.373,1.9,1.9,0,0,1-.712.126,1.894,1.894,0,0,1-.89-.2,1.447,1.447,0,0,1-.594-.56,1.58,1.58,0,0,1-.209-.812,1.6,1.6,0,0,1,.2-.806,1.445,1.445,0,0,1,.565-.56,1.649,1.649,0,0,1,.815-.2,1.608,1.608,0,0,1,.8.2,1.4,1.4,0,0,1,.551.557A1.688,1.688,0,0,1,20.055-8.55ZM18.505-9.56a.865.865,0,0,0-.582.2.857.857,0,0,0-.29.542h1.739a.846.846,0,0,0-.281-.539A.855.855,0,0,0,18.505-9.56Zm6.9,1.9v.626H22.4v-4.017h2.933v.626H23.142v1.044h1.94v.614h-1.94v1.108ZM29-10.1,27.687-7.035h-.74L25.633-10.1h.746l.953,2.273.981-2.273ZM32.244-8.55q0,.075-.011.212h-2.4a.833.833,0,0,0,.33.537,1.082,1.082,0,0,0,.663.2,1.117,1.117,0,0,0,.832-.333l.384.442a1.3,1.3,0,0,1-.522.373,1.9,1.9,0,0,1-.712.126,1.894,1.894,0,0,1-.89-.2,1.447,1.447,0,0,1-.594-.56,1.58,1.58,0,0,1-.209-.812,1.6,1.6,0,0,1,.2-.806,1.445,1.445,0,0,1,.565-.56,1.649,1.649,0,0,1,.815-.2,1.608,1.608,0,0,1,.8.2,1.4,1.4,0,0,1,.551.557A1.688,1.688,0,0,1,32.244-8.55ZM30.694-9.56a.865.865,0,0,0-.582.2.857.857,0,0,0-.29.542h1.739a.846.846,0,0,0-.281-.539A.855.855,0,0,0,30.694-9.56Zm2.921-.092a1.2,1.2,0,0,1,1.09-.482v.683a.911.911,0,0,0-.166-.017.866.866,0,0,0-.654.244.973.973,0,0,0-.235.7v1.486h-.717V-10.1h.683ZM38.3-10.1,36.864-6.788a1.541,1.541,0,0,1-.488.7,1.168,1.168,0,0,1-.694.2,1.425,1.425,0,0,1-.453-.075,1,1,0,0,1-.367-.207l.287-.528a.781.781,0,0,0,.244.155.746.746,0,0,0,.284.057.489.489,0,0,0,.313-.1.863.863,0,0,0,.227-.327l.052-.121L34.93-10.1h.746l.964,2.267.97-2.267Zm3.96,3.122a2.262,2.262,0,0,1-1.1-.267,1.967,1.967,0,0,1-.769-.737,2.046,2.046,0,0,1-.278-1.062,2.03,2.03,0,0,1,.281-1.062,1.988,1.988,0,0,1,.772-.737,2.262,2.262,0,0,1,1.1-.267,2.292,2.292,0,0,1,.9.172,1.838,1.838,0,0,1,.689.5l-.482.453a1.406,1.406,0,0,0-1.073-.471,1.5,1.5,0,0,0-.74.181,1.3,1.3,0,0,0-.511.5,1.443,1.443,0,0,0-.184.729,1.443,1.443,0,0,0,.184.729,1.3,1.3,0,0,0,.511.5,1.5,1.5,0,0,0,.74.181,1.4,1.4,0,0,0,1.073-.476l.482.459a1.833,1.833,0,0,1-.692.5A2.313,2.313,0,0,1,42.258-6.978Zm3.506-.017a1.739,1.739,0,0,1-.838-.2,1.465,1.465,0,0,1-.582-.56,1.58,1.58,0,0,1-.209-.812,1.565,1.565,0,0,1,.209-.809,1.471,1.471,0,0,1,.582-.557,1.739,1.739,0,0,1,.838-.2,1.751,1.751,0,0,1,.844.2,1.471,1.471,0,0,1,.582.557,1.565,1.565,0,0,1,.209.809,1.58,1.58,0,0,1-.209.812,1.465,1.465,0,0,1-.582.56A1.751,1.751,0,0,1,45.764-6.995Zm0-.614a.876.876,0,0,0,.654-.264.95.95,0,0,0,.258-.694.95.95,0,0,0-.258-.694.876.876,0,0,0-.654-.264.867.867,0,0,0-.651.264.957.957,0,0,0-.255.694.957.957,0,0,0,.255.694A.867.867,0,0,0,45.764-7.609Zm3.007-2.043a1.2,1.2,0,0,1,1.09-.482v.683a.911.911,0,0,0-.166-.017.866.866,0,0,0-.654.244.973.973,0,0,0-.235.7v1.486h-.717V-10.1h.683Zm3.438-.482a1.281,1.281,0,0,1,.93.339,1.336,1.336,0,0,1,.35,1v1.756h-.717V-8.7a.86.86,0,0,0-.189-.605.7.7,0,0,0-.539-.2.828.828,0,0,0-.626.238.949.949,0,0,0-.23.686v1.549H50.47V-10.1h.683v.4a1.121,1.121,0,0,1,.448-.321A1.611,1.611,0,0,1,52.209-10.134Zm5.1,1.584q0,.075-.011.212h-2.4a.833.833,0,0,0,.33.537,1.082,1.082,0,0,0,.663.2,1.117,1.117,0,0,0,.832-.333l.384.442a1.3,1.3,0,0,1-.522.373,1.9,1.9,0,0,1-.712.126,1.894,1.894,0,0,1-.89-.2,1.447,1.447,0,0,1-.594-.56,1.58,1.58,0,0,1-.209-.812,1.6,1.6,0,0,1,.2-.806,1.445,1.445,0,0,1,.565-.56,1.649,1.649,0,0,1,.815-.2,1.608,1.608,0,0,1,.8.2,1.4,1.4,0,0,1,.551.557A1.688,1.688,0,0,1,57.311-8.55ZM55.761-9.56a.865.865,0,0,0-.582.2.857.857,0,0,0-.29.542h1.739a.846.846,0,0,0-.281-.539A.855.855,0,0,0,55.761-9.56Zm2.921-.092a1.2,1.2,0,0,1,1.09-.482v.683a.911.911,0,0,0-.166-.017.866.866,0,0,0-.654.244.973.973,0,0,0-.235.7v1.486H58V-10.1h.683Zm6.123.562h.706v1.6a2.244,2.244,0,0,1-.723.379,2.774,2.774,0,0,1-.849.132,2.291,2.291,0,0,1-1.108-.267,1.983,1.983,0,0,1-.775-.737,2.03,2.03,0,0,1-.281-1.062,2.03,2.03,0,0,1,.281-1.062,1.977,1.977,0,0,1,.778-.737,2.319,2.319,0,0,1,1.116-.267,2.437,2.437,0,0,1,.918.166,1.8,1.8,0,0,1,.694.488L65.093-10a1.509,1.509,0,0,0-1.108-.459,1.565,1.565,0,0,0-.755.178,1.3,1.3,0,0,0-.516.5,1.436,1.436,0,0,0-.187.735,1.414,1.414,0,0,0,.187.723,1.337,1.337,0,0,0,.516.505,1.514,1.514,0,0,0,.749.184,1.616,1.616,0,0,0,.826-.207Zm4.5.539q0,.075-.011.212h-2.4a.833.833,0,0,0,.33.537,1.082,1.082,0,0,0,.663.2,1.117,1.117,0,0,0,.832-.333l.384.442a1.3,1.3,0,0,1-.522.373,1.9,1.9,0,0,1-.712.126,1.894,1.894,0,0,1-.89-.2,1.447,1.447,0,0,1-.594-.56,1.58,1.58,0,0,1-.209-.812,1.6,1.6,0,0,1,.2-.806,1.445,1.445,0,0,1,.565-.56,1.649,1.649,0,0,1,.815-.2,1.608,1.608,0,0,1,.8.2,1.4,1.4,0,0,1,.551.557A1.688,1.688,0,0,1,69.3-8.55ZM67.755-9.56a.865.865,0,0,0-.582.2.857.857,0,0,0-.29.542h1.739a.846.846,0,0,0-.281-.539A.855.855,0,0,0,67.755-9.56ZM71.836-7.2a.845.845,0,0,1-.307.155,1.383,1.383,0,0,1-.382.052,1.083,1.083,0,0,1-.78-.264,1.016,1.016,0,0,1-.275-.769V-9.5h-.505v-.574h.505v-.7h.717v.7h.821V-9.5h-.821v1.458a.485.485,0,0,0,.109.341.409.409,0,0,0,.316.118.63.63,0,0,0,.4-.126Zm1.538.207a2.744,2.744,0,0,1-.729-.1,1.834,1.834,0,0,1-.568-.247l.275-.545a1.771,1.771,0,0,0,.5.221,2.062,2.062,0,0,0,.571.083q.643,0,.643-.339a.226.226,0,0,0-.164-.224,2.824,2.824,0,0,0-.525-.121,4.26,4.26,0,0,1-.617-.132.947.947,0,0,1-.413-.261.729.729,0,0,1-.175-.519.816.816,0,0,1,.364-.7,1.659,1.659,0,0,1,.984-.261,2.84,2.84,0,0,1,.631.072,1.77,1.77,0,0,1,.516.192l-.275.545a1.7,1.7,0,0,0-.878-.23.973.973,0,0,0-.479.095.283.283,0,0,0-.164.25.249.249,0,0,0,.175.244,2.782,2.782,0,0,0,.542.135,4.185,4.185,0,0,1,.6.132.943.943,0,0,1,.4.253.7.7,0,0,1,.169.505.8.8,0,0,1-.373.689A1.759,1.759,0,0,1,73.374-6.995Zm4.763-3.139a1.494,1.494,0,0,1,1.036.324,1.253,1.253,0,0,1,.359.978v1.8h-.677v-.373a.835.835,0,0,1-.376.307,1.469,1.469,0,0,1-.588.106,1.441,1.441,0,0,1-.6-.118.931.931,0,0,1-.4-.327.83.83,0,0,1-.141-.473.811.811,0,0,1,.307-.663,1.525,1.525,0,0,1,.967-.25h.792v-.046a.628.628,0,0,0-.192-.494.832.832,0,0,0-.571-.172,1.648,1.648,0,0,0-.508.08,1.248,1.248,0,0,0-.422.224l-.281-.522a1.741,1.741,0,0,1,.58-.281A2.579,2.579,0,0,1,78.137-10.134Zm-.1,2.617a.926.926,0,0,0,.479-.123.671.671,0,0,0,.3-.353v-.356h-.74q-.62,0-.62.407a.366.366,0,0,0,.155.31A.71.71,0,0,0,78.039-7.517Zm5.922.539a2.262,2.262,0,0,1-1.1-.267,1.967,1.967,0,0,1-.769-.737,2.046,2.046,0,0,1-.278-1.062,2.03,2.03,0,0,1,.281-1.062,1.988,1.988,0,0,1,.772-.737,2.262,2.262,0,0,1,1.1-.267,2.292,2.292,0,0,1,.9.172,1.838,1.838,0,0,1,.689.5l-.482.453A1.406,1.406,0,0,0,84-10.455a1.5,1.5,0,0,0-.74.181,1.3,1.3,0,0,0-.511.5,1.443,1.443,0,0,0-.184.729,1.443,1.443,0,0,0,.184.729,1.3,1.3,0,0,0,.511.5,1.5,1.5,0,0,0,.74.181,1.4,1.4,0,0,0,1.073-.476l.482.459a1.833,1.833,0,0,1-.692.5A2.313,2.313,0,0,1,83.962-6.978Zm2.244-4.316h.717v4.258h-.717Zm3.036,4.3a1.739,1.739,0,0,1-.838-.2,1.465,1.465,0,0,1-.582-.56,1.58,1.58,0,0,1-.209-.812,1.565,1.565,0,0,1,.209-.809,1.471,1.471,0,0,1,.582-.557,1.739,1.739,0,0,1,.838-.2,1.751,1.751,0,0,1,.844.2,1.47,1.47,0,0,1,.582.557,1.565,1.565,0,0,1,.209.809,1.58,1.58,0,0,1-.209.812,1.465,1.465,0,0,1-.582.56A1.751,1.751,0,0,1,89.241-6.995Zm0-.614a.876.876,0,0,0,.654-.264.95.95,0,0,0,.258-.694.95.95,0,0,0-.258-.694.876.876,0,0,0-.654-.264.867.867,0,0,0-.651.264.957.957,0,0,0-.255.694.957.957,0,0,0,.255.694A.867.867,0,0,0,89.241-7.609Zm3.271.614a2.744,2.744,0,0,1-.729-.1,1.834,1.834,0,0,1-.568-.247l.275-.545a1.771,1.771,0,0,0,.5.221,2.062,2.062,0,0,0,.571.083q.643,0,.643-.339a.226.226,0,0,0-.164-.224,2.824,2.824,0,0,0-.525-.121A4.26,4.26,0,0,1,91.9-8.4a.947.947,0,0,1-.413-.261.729.729,0,0,1-.175-.519.816.816,0,0,1,.364-.7,1.659,1.659,0,0,1,.984-.261,2.84,2.84,0,0,1,.631.072,1.77,1.77,0,0,1,.516.192l-.275.545a1.7,1.7,0,0,0-.878-.23.973.973,0,0,0-.479.095.283.283,0,0,0-.164.25.249.249,0,0,0,.175.244,2.782,2.782,0,0,0,.542.135,4.184,4.184,0,0,1,.6.132.943.943,0,0,1,.4.253.7.7,0,0,1,.169.505.8.8,0,0,1-.373.689A1.759,1.759,0,0,1,92.513-6.995ZM97.4-8.55q0,.075-.011.212h-2.4a.833.833,0,0,0,.33.537,1.082,1.082,0,0,0,.663.2,1.117,1.117,0,0,0,.832-.333l.384.442a1.3,1.3,0,0,1-.522.373,1.9,1.9,0,0,1-.712.126,1.894,1.894,0,0,1-.89-.2,1.447,1.447,0,0,1-.594-.56,1.58,1.58,0,0,1-.209-.812,1.6,1.6,0,0,1,.2-.806,1.445,1.445,0,0,1,.565-.56,1.649,1.649,0,0,1,.815-.2,1.608,1.608,0,0,1,.8.2,1.4,1.4,0,0,1,.551.557A1.688,1.688,0,0,1,97.4-8.55ZM95.853-9.56a.865.865,0,0,0-.582.2.857.857,0,0,0-.29.542h1.739a.846.846,0,0,0-.281-.539A.855.855,0,0,0,95.853-9.56Zm2.921-.092a1.2,1.2,0,0,1,1.09-.482v.683a.911.911,0,0,0-.166-.017.866.866,0,0,0-.654.244.973.973,0,0,0-.235.7v1.486h-.717V-10.1h.683Zm3.38-1.4h.746v3.386H105v.631h-2.846Zm4.717,4.057a1.739,1.739,0,0,1-.838-.2,1.465,1.465,0,0,1-.582-.56,1.58,1.58,0,0,1-.209-.812,1.565,1.565,0,0,1,.209-.809,1.471,1.471,0,0,1,.582-.557,1.739,1.739,0,0,1,.838-.2,1.751,1.751,0,0,1,.844.2,1.471,1.471,0,0,1,.582.557,1.565,1.565,0,0,1,.209.809,1.58,1.58,0,0,1-.209.812,1.465,1.465,0,0,1-.582.56A1.751,1.751,0,0,1,106.871-6.995Zm0-.614a.876.876,0,0,0,.654-.264.95.95,0,0,0,.258-.694.95.95,0,0,0-.258-.694.876.876,0,0,0-.654-.264.867.867,0,0,0-.651.264.957.957,0,0,0-.255.694.957.957,0,0,0,.255.694A.867.867,0,0,0,106.871-7.609Zm3.7.614a1.739,1.739,0,0,1-.838-.2,1.465,1.465,0,0,1-.582-.56,1.58,1.58,0,0,1-.209-.812,1.565,1.565,0,0,1,.209-.809,1.471,1.471,0,0,1,.582-.557,1.739,1.739,0,0,1,.838-.2,1.751,1.751,0,0,1,.844.2,1.471,1.471,0,0,1,.582.557,1.565,1.565,0,0,1,.209.809,1.58,1.58,0,0,1-.209.812,1.465,1.465,0,0,1-.582.56A1.751,1.751,0,0,1,110.572-6.995Zm0-.614a.876.876,0,0,0,.654-.264.95.95,0,0,0,.258-.694.95.95,0,0,0-.258-.694.876.876,0,0,0-.654-.264.867.867,0,0,0-.651.264.956.956,0,0,0-.255.694.956.956,0,0,0,.255.694A.867.867,0,0,0,110.572-7.609Zm3.575-.74-.534.505v.809H112.9v-4.258h.717v2.571L115.1-10.1h.861l-1.28,1.285,1.4,1.779h-.872Z" transform="translate(-0.411 11.293)" fill="#fff"/>
    </g>
    <g id="Group_162" data-name="Group 162" transform="translate(365.694 471.704)">
      <path id="Path_103" data-name="Path 103" d="M19.313-88.26v9.35H35.688v6.57H19.313v12.888H11.125V-94.83H37.861v6.57ZM60-58.845a20.321,20.321,0,0,1-9.78-2.35,17.539,17.539,0,0,1-6.874-6.52,17.963,17.963,0,0,1-2.5-9.426,17.963,17.963,0,0,1,2.5-9.426,17.539,17.539,0,0,1,6.874-6.52,20.427,20.427,0,0,1,9.83-2.35,20.619,20.619,0,0,1,8.314,1.617,16.653,16.653,0,0,1,6.242,4.65l-5.256,4.852a11.3,11.3,0,0,0-8.9-4.144,11.811,11.811,0,0,0-5.863,1.44A10.24,10.24,0,0,0,50.572-83a11.811,11.811,0,0,0-1.44,5.863,11.811,11.811,0,0,0,1.44,5.863A10.24,10.24,0,0,0,54.59-67.26a11.811,11.811,0,0,0,5.863,1.44,11.247,11.247,0,0,0,8.9-4.195L74.6-65.163a16.384,16.384,0,0,1-6.267,4.7A20.8,20.8,0,0,1,60-58.845Zm46.093-19a9.329,9.329,0,0,1,4.751,3.209A8.847,8.847,0,0,1,112.56-69.1a8.176,8.176,0,0,1-3.614,7.151q-3.614,2.5-10.538,2.5h-18.3V-94.83H97.4q6.469,0,9.931,2.476a7.838,7.838,0,0,1,3.462,6.722,8.627,8.627,0,0,1-1.238,4.6A8.672,8.672,0,0,1,106.091-77.848ZM88.25-88.664v8.339h8.137a8.214,8.214,0,0,0,4.6-1.061,3.54,3.54,0,0,0,1.567-3.134,3.478,3.478,0,0,0-1.567-3.108,8.374,8.374,0,0,0-4.6-1.036ZM97.8-65.618a9.073,9.073,0,0,0,4.877-1.061,3.635,3.635,0,0,0,1.643-3.285q0-4.4-6.52-4.4H88.25v8.743ZM118.776-94.83h8.188v35.378h-8.188Z" transform="translate(-11.125 95.436)" fill="#fff"/>
    </g>
    <g id="Group_167" data-name="Group 167" transform="translate(319.3 461.83)">
      <rect id="Rectangle_194" data-name="Rectangle 194" width="2.56" height="39.067" transform="translate(0 16.357)" fill="#d5b276"/>
      <path id="Path_95" data-name="Path 95" d="M321.246,479.714l-1.946-1.527,16.507-16.357-.535,3.8Z" transform="translate(-319.3 -461.83)" fill="#d5b276" fill-rule="evenodd"/>
      <rect id="Rectangle_195" data-name="Rectangle 195" width="2.56" height="15.391" transform="translate(37.591 52.862) rotate(90)" fill="#d5b276"/>
      <rect id="Rectangle_196" data-name="Rectangle 196" width="2.56" height="6.791" transform="translate(15.139 52.864) rotate(90)" fill="#d5b276"/>
      <rect id="Rectangle_197" data-name="Rectangle 197" width="2.56" height="45.808" transform="translate(37.591 54.562) rotate(180)" fill="#d5b276"/>
      <path id="Path_96" data-name="Path 96" d="M370.35,485.05h18.344v2.56H370.4" transform="translate(-351.101 -476.295)" fill="#d5b276" fill-rule="evenodd"/>
      <path id="Path_97" data-name="Path 97" d="M358.85,517.253h-2.56V466.871l2.56-5.041Z" transform="translate(-342.343 -461.83)" fill="#d5b276" fill-rule="evenodd"/>
      <path id="Path_98" data-name="Path 98" d="M377.344,567.282H374.78V542.14l2.564.049Z" transform="translate(-353.861 -511.859)" fill="#d5b276" fill-rule="evenodd"/>
      <path id="Path_99" data-name="Path 99" d="M340.354,567.282H337.79V542.14l2.564.049Z" transform="translate(-330.818 -511.859)" fill="#d5b276" fill-rule="evenodd"/>
      <g id="Group_164" data-name="Group 164" transform="translate(14.091 20.911)">
        <g id="Group_163" data-name="Group 163" clip-path="url(#clip-path)">
          <path id="Path_100" data-name="Path 100" d="M376.258,538.524l-1.81,1.814L356.67,522.556l1.844-1.776Z" transform="translate(-356.67 -519.464)" fill="#d5b276" fill-rule="evenodd"/>
        </g>
      </g>
      <g id="Group_166" data-name="Group 166" transform="translate(6.972 20.342)">
        <g id="Group_165" data-name="Group 165" clip-path="url(#clip-path-2)">
          <path id="Path_101" data-name="Path 101" d="M313.67,538.708l-1.81-1.81,17.778-17.778,1.78,1.844Z" transform="translate(-321.637 -517.861)" fill="#d5b276" fill-rule="evenodd"/>
        </g>
      </g>
      <path id="Path_102" data-name="Path 102" d="M337.79,504.216l.064-3.352,7.3-7.224,1.859,1.931Z" transform="translate(-330.818 -481.646)" fill="#d5b276" fill-rule="evenodd"/>
    </g>
  </g>
</svg>
