<svg xmlns="http://www.w3.org/2000/svg" xmlns:xlink="http://www.w3.org/1999/xlink" width="130.43" height="45.487" viewBox="0 0 130.43 45.487">
  <defs>
    <clipPath id="clip-path">
      <rect id="Rectangle_198" data-name="Rectangle 198" width="7.551" height="12.044" fill="#fff"/>
    </clipPath>
    <clipPath id="clip-path-2">
      <rect id="Rectangle_199" data-name="Rectangle 199" width="5.893" height="11.098" fill="#fff"/>
    </clipPath>
  </defs>
  <g id="FCBI_1_" data-name="FCBI (1)" transform="translate(-319.3 -461.83)">
    <g id="Group_161" data-name="Group 161" transform="translate(356.734 502.966)">
      <path id="Path_104" data-name="Path 104" d="M5.44-11.1,4.37-7.87H3.733l-.8-2.39L2.123-7.87H1.481L.411-11.1h.623l.8,2.455L2.672-11.1h.554l.817,2.468L4.868-11.1Zm1.9.738a1.03,1.03,0,0,1,.747.272,1.074,1.074,0,0,1,.281.807V-7.87H7.793V-9.208a.692.692,0,0,0-.152-.487.563.563,0,0,0-.434-.164.666.666,0,0,0-.5.191.763.763,0,0,0-.185.551V-7.87H5.943v-3.423H6.52v1.246a.938.938,0,0,1,.353-.233A1.3,1.3,0,0,1,7.341-10.361Zm4.1,1.273q0,.06-.009.171H9.5a.67.67,0,0,0,.265.431.87.87,0,0,0,.533.159.9.9,0,0,0,.669-.268l.309.355a1.042,1.042,0,0,1-.42.3,1.529,1.529,0,0,1-.572.1A1.523,1.523,0,0,1,9.569-8a1.163,1.163,0,0,1-.478-.45A1.27,1.27,0,0,1,8.923-9.1a1.289,1.289,0,0,1,.164-.648,1.162,1.162,0,0,1,.454-.45,1.326,1.326,0,0,1,.655-.161,1.293,1.293,0,0,1,.644.159,1.127,1.127,0,0,1,.443.448A1.357,1.357,0,0,1,11.443-9.088ZM10.2-9.9a.7.7,0,0,0-.468.164A.689.689,0,0,0,9.5-9.3h1.4a.68.68,0,0,0-.226-.434A.688.688,0,0,0,10.2-9.9Zm2.348-.074a.961.961,0,0,1,.877-.388v.549a.732.732,0,0,0-.134-.014.7.7,0,0,0-.526.2.782.782,0,0,0-.189.565V-7.87H12v-2.464h.549Zm3.659.886q0,.06-.009.171H14.262a.67.67,0,0,0,.265.431.87.87,0,0,0,.533.159.9.9,0,0,0,.669-.268l.309.355a1.042,1.042,0,0,1-.42.3,1.529,1.529,0,0,1-.572.1A1.523,1.523,0,0,1,14.331-8a1.163,1.163,0,0,1-.478-.45,1.27,1.27,0,0,1-.168-.653,1.289,1.289,0,0,1,.164-.648,1.162,1.162,0,0,1,.454-.45,1.326,1.326,0,0,1,.655-.161,1.293,1.293,0,0,1,.644.159,1.127,1.127,0,0,1,.443.448A1.357,1.357,0,0,1,16.2-9.088ZM14.958-9.9a.7.7,0,0,0-.468.164.689.689,0,0,0-.233.436h1.4a.68.68,0,0,0-.226-.434A.688.688,0,0,0,14.958-9.9Zm5.55,1.527v.5H18.086V-11.1h2.358v.5H18.686v.84h1.559v.494H18.686v.89ZM23.4-10.334,22.34-7.87h-.6l-1.057-2.464h.6l.766,1.827.789-1.827ZM26-9.088q0,.06-.009.171H24.061a.67.67,0,0,0,.265.431.87.87,0,0,0,.533.159.9.9,0,0,0,.669-.268l.309.355a1.042,1.042,0,0,1-.42.3,1.529,1.529,0,0,1-.572.1A1.523,1.523,0,0,1,24.131-8a1.163,1.163,0,0,1-.478-.45,1.27,1.27,0,0,1-.168-.653,1.289,1.289,0,0,1,.164-.648,1.162,1.162,0,0,1,.454-.45,1.326,1.326,0,0,1,.655-.161,1.293,1.293,0,0,1,.644.159,1.127,1.127,0,0,1,.443.448A1.357,1.357,0,0,1,26-9.088ZM24.758-9.9a.7.7,0,0,0-.468.164.689.689,0,0,0-.233.436h1.4a.68.68,0,0,0-.226-.434A.688.688,0,0,0,24.758-9.9Zm2.348-.074a.961.961,0,0,1,.877-.388v.549a.732.732,0,0,0-.134-.014.7.7,0,0,0-.526.2.782.782,0,0,0-.189.565V-7.87h-.577v-2.464h.549Zm3.765-.36L29.718-7.671a1.239,1.239,0,0,1-.392.565.939.939,0,0,1-.558.164A1.146,1.146,0,0,1,28.4-7a.805.805,0,0,1-.3-.166l.231-.424a.628.628,0,0,0,.2.125.6.6,0,0,0,.228.046.393.393,0,0,0,.251-.078.694.694,0,0,0,.182-.263l.042-.1-1.075-2.473h.6l.775,1.822.78-1.822Zm3.184,2.51a1.819,1.819,0,0,1-.884-.215,1.582,1.582,0,0,1-.618-.593,1.645,1.645,0,0,1-.224-.854,1.632,1.632,0,0,1,.226-.854,1.6,1.6,0,0,1,.621-.593,1.819,1.819,0,0,1,.884-.215,1.843,1.843,0,0,1,.724.138,1.477,1.477,0,0,1,.554.4l-.388.364a1.13,1.13,0,0,0-.863-.378,1.21,1.21,0,0,0-.6.145,1.047,1.047,0,0,0-.411.4,1.16,1.16,0,0,0-.148.586,1.16,1.16,0,0,0,.148.586,1.047,1.047,0,0,0,.411.4,1.21,1.21,0,0,0,.6.145,1.124,1.124,0,0,0,.863-.383l.388.369a1.474,1.474,0,0,1-.556.4A1.86,1.86,0,0,1,34.055-7.824Zm2.819-.014A1.4,1.4,0,0,1,36.2-8a1.177,1.177,0,0,1-.468-.45,1.27,1.27,0,0,1-.168-.653,1.258,1.258,0,0,1,.168-.651A1.182,1.182,0,0,1,36.2-10.2a1.4,1.4,0,0,1,.674-.161,1.408,1.408,0,0,1,.678.161,1.182,1.182,0,0,1,.468.448,1.258,1.258,0,0,1,.168.651,1.27,1.27,0,0,1-.168.653,1.177,1.177,0,0,1-.468.45A1.408,1.408,0,0,1,36.874-7.837Zm0-.494a.7.7,0,0,0,.526-.212.764.764,0,0,0,.208-.558A.764.764,0,0,0,37.4-9.66a.7.7,0,0,0-.526-.212.7.7,0,0,0-.524.212.769.769,0,0,0-.205.558.769.769,0,0,0,.205.558A.7.7,0,0,0,36.874-8.331Zm2.418-1.643a.961.961,0,0,1,.877-.388v.549a.732.732,0,0,0-.134-.014.7.7,0,0,0-.526.2.782.782,0,0,0-.189.565V-7.87h-.577v-2.464h.549Zm2.764-.388a1.03,1.03,0,0,1,.747.272,1.074,1.074,0,0,1,.281.807V-7.87h-.577V-9.208a.692.692,0,0,0-.152-.487.563.563,0,0,0-.434-.164.666.666,0,0,0-.5.191.763.763,0,0,0-.185.551V-7.87h-.577v-2.464h.549v.318a.9.9,0,0,1,.36-.258A1.3,1.3,0,0,1,42.055-10.361Zm4.1,1.273q0,.06-.009.171H44.215a.67.67,0,0,0,.265.431.87.87,0,0,0,.533.159.9.9,0,0,0,.669-.268l.309.355a1.042,1.042,0,0,1-.42.3,1.529,1.529,0,0,1-.572.1A1.523,1.523,0,0,1,44.284-8a1.163,1.163,0,0,1-.478-.45,1.27,1.27,0,0,1-.168-.653A1.289,1.289,0,0,1,43.8-9.75a1.162,1.162,0,0,1,.454-.45,1.326,1.326,0,0,1,.655-.161,1.293,1.293,0,0,1,.644.159A1.127,1.127,0,0,1,46-9.755,1.357,1.357,0,0,1,46.157-9.088ZM44.911-9.9a.7.7,0,0,0-.468.164.689.689,0,0,0-.233.436h1.4a.68.68,0,0,0-.226-.434A.688.688,0,0,0,44.911-9.9Zm2.348-.074a.961.961,0,0,1,.877-.388v.549A.732.732,0,0,0,48-9.826a.7.7,0,0,0-.526.2.782.782,0,0,0-.189.565V-7.87h-.577v-2.464h.549Zm4.923.452h.567v1.287a1.8,1.8,0,0,1-.581.3,2.231,2.231,0,0,1-.683.106,1.842,1.842,0,0,1-.89-.215,1.594,1.594,0,0,1-.623-.593,1.632,1.632,0,0,1-.226-.854,1.632,1.632,0,0,1,.226-.854,1.59,1.59,0,0,1,.625-.593,1.865,1.865,0,0,1,.9-.215,1.959,1.959,0,0,1,.738.134,1.449,1.449,0,0,1,.558.392l-.378.369a1.213,1.213,0,0,0-.89-.369,1.258,1.258,0,0,0-.607.143,1.043,1.043,0,0,0-.415.4,1.155,1.155,0,0,0-.15.591,1.137,1.137,0,0,0,.15.581,1.075,1.075,0,0,0,.415.406,1.217,1.217,0,0,0,.6.148,1.3,1.3,0,0,0,.664-.166Zm3.617.434q0,.06-.009.171H53.857a.67.67,0,0,0,.265.431.87.87,0,0,0,.533.159.9.9,0,0,0,.669-.268l.309.355a1.042,1.042,0,0,1-.42.3,1.529,1.529,0,0,1-.572.1A1.523,1.523,0,0,1,53.927-8a1.163,1.163,0,0,1-.478-.45,1.27,1.27,0,0,1-.168-.653,1.289,1.289,0,0,1,.164-.648,1.162,1.162,0,0,1,.454-.45,1.326,1.326,0,0,1,.655-.161,1.293,1.293,0,0,1,.644.159,1.127,1.127,0,0,1,.443.448A1.357,1.357,0,0,1,55.8-9.088ZM54.554-9.9a.7.7,0,0,0-.468.164.689.689,0,0,0-.233.436h1.4a.68.68,0,0,0-.226-.434A.688.688,0,0,0,54.554-9.9ZM57.834-8a.679.679,0,0,1-.247.125,1.112,1.112,0,0,1-.307.042.871.871,0,0,1-.627-.212.817.817,0,0,1-.221-.618V-9.854h-.406v-.461h.406v-.563h.577v.563h.66v.461h-.66v1.172a.39.39,0,0,0,.088.275.329.329,0,0,0,.254.095.507.507,0,0,0,.323-.1Zm1.236.166a2.206,2.206,0,0,1-.586-.078,1.474,1.474,0,0,1-.457-.2l.221-.438a1.424,1.424,0,0,0,.4.178,1.658,1.658,0,0,0,.459.067q.517,0,.517-.272a.182.182,0,0,0-.131-.18,2.271,2.271,0,0,0-.422-.1,3.425,3.425,0,0,1-.5-.106.761.761,0,0,1-.332-.21.586.586,0,0,1-.141-.418.656.656,0,0,1,.293-.561,1.333,1.333,0,0,1,.791-.21,2.284,2.284,0,0,1,.508.058,1.423,1.423,0,0,1,.415.155l-.221.438a1.366,1.366,0,0,0-.706-.185.782.782,0,0,0-.385.076.227.227,0,0,0-.131.2.2.2,0,0,0,.141.2,2.236,2.236,0,0,0,.436.108,3.364,3.364,0,0,1,.484.106.758.758,0,0,1,.325.2.566.566,0,0,1,.136.406.642.642,0,0,1-.3.554A1.414,1.414,0,0,1,59.071-7.837ZM62.9-10.361a1.2,1.2,0,0,1,.833.261,1.008,1.008,0,0,1,.288.787V-7.87h-.544v-.3a.671.671,0,0,1-.3.247,1.181,1.181,0,0,1-.473.085,1.159,1.159,0,0,1-.484-.095A.749.749,0,0,1,61.9-8.2a.667.667,0,0,1-.113-.381.652.652,0,0,1,.247-.533,1.226,1.226,0,0,1,.777-.2h.637v-.037a.5.5,0,0,0-.155-.4.669.669,0,0,0-.459-.138,1.325,1.325,0,0,0-.408.065,1,1,0,0,0-.339.18l-.226-.42a1.4,1.4,0,0,1,.466-.226A2.073,2.073,0,0,1,62.9-10.361Zm-.078,2.1a.745.745,0,0,0,.385-.1.54.54,0,0,0,.238-.284v-.286h-.6q-.5,0-.5.328a.294.294,0,0,0,.125.249A.571.571,0,0,0,62.822-8.257Zm4.761.434a1.819,1.819,0,0,1-.884-.215,1.582,1.582,0,0,1-.618-.593,1.645,1.645,0,0,1-.224-.854,1.632,1.632,0,0,1,.226-.854,1.6,1.6,0,0,1,.621-.593,1.819,1.819,0,0,1,.884-.215,1.843,1.843,0,0,1,.724.138,1.477,1.477,0,0,1,.554.4l-.388.364a1.13,1.13,0,0,0-.863-.378,1.21,1.21,0,0,0-.6.145,1.047,1.047,0,0,0-.411.4,1.16,1.16,0,0,0-.148.586,1.16,1.16,0,0,0,.148.586,1.047,1.047,0,0,0,.411.4,1.21,1.21,0,0,0,.6.145,1.124,1.124,0,0,0,.863-.383l.388.369a1.474,1.474,0,0,1-.556.4A1.86,1.86,0,0,1,67.583-7.824Zm1.8-3.47h.577V-7.87h-.577Zm2.441,3.456A1.4,1.4,0,0,1,71.155-8a1.178,1.178,0,0,1-.468-.45,1.27,1.27,0,0,1-.168-.653,1.258,1.258,0,0,1,.168-.651,1.182,1.182,0,0,1,.468-.448,1.4,1.4,0,0,1,.674-.161,1.408,1.408,0,0,1,.678.161,1.182,1.182,0,0,1,.468.448,1.258,1.258,0,0,1,.168.651,1.27,1.27,0,0,1-.168.653,1.177,1.177,0,0,1-.468.45A1.408,1.408,0,0,1,71.828-7.837Zm0-.494a.7.7,0,0,0,.526-.212.764.764,0,0,0,.208-.558.764.764,0,0,0-.208-.558.7.7,0,0,0-.526-.212.7.7,0,0,0-.524.212A.769.769,0,0,0,71.1-9.1a.769.769,0,0,0,.205.558A.7.7,0,0,0,71.828-8.331Zm2.63.494a2.206,2.206,0,0,1-.586-.078,1.474,1.474,0,0,1-.457-.2l.221-.438a1.424,1.424,0,0,0,.4.178,1.658,1.658,0,0,0,.459.067q.517,0,.517-.272a.182.182,0,0,0-.131-.18,2.271,2.271,0,0,0-.422-.1,3.425,3.425,0,0,1-.5-.106.761.761,0,0,1-.332-.21.586.586,0,0,1-.141-.418.656.656,0,0,1,.293-.561,1.333,1.333,0,0,1,.791-.21,2.284,2.284,0,0,1,.508.058,1.423,1.423,0,0,1,.415.155l-.221.438a1.366,1.366,0,0,0-.706-.185.782.782,0,0,0-.385.076.227.227,0,0,0-.131.2.2.2,0,0,0,.141.2,2.236,2.236,0,0,0,.436.108,3.364,3.364,0,0,1,.484.106.758.758,0,0,1,.325.2.566.566,0,0,1,.136.406.642.642,0,0,1-.3.554A1.414,1.414,0,0,1,74.458-7.837Zm3.931-1.25q0,.06-.009.171H76.447a.67.67,0,0,0,.265.431.87.87,0,0,0,.533.159.9.9,0,0,0,.669-.268l.309.355a1.042,1.042,0,0,1-.42.3,1.529,1.529,0,0,1-.572.1A1.523,1.523,0,0,1,76.516-8a1.163,1.163,0,0,1-.478-.45A1.27,1.27,0,0,1,75.87-9.1a1.289,1.289,0,0,1,.164-.648,1.162,1.162,0,0,1,.454-.45,1.326,1.326,0,0,1,.655-.161,1.293,1.293,0,0,1,.644.159,1.127,1.127,0,0,1,.443.448A1.357,1.357,0,0,1,78.389-9.088ZM77.143-9.9a.7.7,0,0,0-.468.164.689.689,0,0,0-.233.436h1.4a.68.68,0,0,0-.226-.434A.688.688,0,0,0,77.143-9.9Zm2.348-.074a.961.961,0,0,1,.877-.388v.549a.732.732,0,0,0-.134-.014.7.7,0,0,0-.526.2.782.782,0,0,0-.189.565V-7.87h-.577v-2.464h.549ZM82.209-11.1h.6v2.722H84.5v.508H82.209ZM86-7.837A1.4,1.4,0,0,1,85.328-8a1.178,1.178,0,0,1-.468-.45,1.27,1.27,0,0,1-.168-.653,1.258,1.258,0,0,1,.168-.651,1.182,1.182,0,0,1,.468-.448A1.4,1.4,0,0,1,86-10.361a1.408,1.408,0,0,1,.678.161,1.182,1.182,0,0,1,.468.448,1.258,1.258,0,0,1,.168.651,1.27,1.27,0,0,1-.168.653A1.177,1.177,0,0,1,86.68-8,1.408,1.408,0,0,1,86-7.837Zm0-.494a.7.7,0,0,0,.526-.212.764.764,0,0,0,.208-.558.764.764,0,0,0-.208-.558A.7.7,0,0,0,86-9.872a.7.7,0,0,0-.524.212.769.769,0,0,0-.205.558.769.769,0,0,0,.205.558A.7.7,0,0,0,86-8.331Zm2.976.494A1.4,1.4,0,0,1,88.3-8a1.178,1.178,0,0,1-.468-.45,1.27,1.27,0,0,1-.168-.653,1.258,1.258,0,0,1,.168-.651A1.182,1.182,0,0,1,88.3-10.2a1.4,1.4,0,0,1,.674-.161,1.408,1.408,0,0,1,.678.161,1.182,1.182,0,0,1,.468.448,1.258,1.258,0,0,1,.168.651,1.27,1.27,0,0,1-.168.653,1.177,1.177,0,0,1-.468.45A1.408,1.408,0,0,1,88.978-7.837Zm0-.494a.7.7,0,0,0,.526-.212.764.764,0,0,0,.208-.558A.764.764,0,0,0,89.5-9.66a.7.7,0,0,0-.526-.212.7.7,0,0,0-.524.212.769.769,0,0,0-.205.558.769.769,0,0,0,.205.558A.7.7,0,0,0,88.978-8.331Zm2.874-.6-.429.406v.651h-.577v-3.423h.577v2.067l1.195-1.107h.692L92.281-9.3l1.126,1.43h-.7Z" transform="translate(-0.411 11.293)" fill="#fff"/>
    </g>
    <g id="Group_162" data-name="Group 162" transform="translate(356.599 469.768)">
      <path id="Path_103" data-name="Path 103" d="M17.708-89.667v7.517H30.873v5.282H17.708v10.361H11.125V-94.949H32.62v5.282Zm32.71,23.648a16.338,16.338,0,0,1-7.863-1.889,14.1,14.1,0,0,1-5.526-5.242,14.441,14.441,0,0,1-2.011-7.578,14.441,14.441,0,0,1,2.011-7.578,14.1,14.1,0,0,1,5.526-5.242,16.423,16.423,0,0,1,7.9-1.889,16.577,16.577,0,0,1,6.684,1.3A13.388,13.388,0,0,1,62.16-90.4l-4.226,3.9a9.086,9.086,0,0,0-7.151-3.332,9.5,9.5,0,0,0-4.713,1.158,8.232,8.232,0,0,0-3.23,3.23,9.5,9.5,0,0,0-1.158,4.713,9.5,9.5,0,0,0,1.158,4.713,8.232,8.232,0,0,0,3.23,3.23,9.5,9.5,0,0,0,4.713,1.158A9.042,9.042,0,0,0,57.935-75l4.226,3.9a13.172,13.172,0,0,1-5.039,3.779A16.723,16.723,0,0,1,50.418-66.018ZM87.475-81.3a7.5,7.5,0,0,1,3.82,2.58,7.113,7.113,0,0,1,1.382,4.449,6.573,6.573,0,0,1-2.905,5.75q-2.905,2.011-8.472,2.011H66.59V-94.949h13.9q5.2,0,7.984,1.991a6.3,6.3,0,0,1,2.783,5.4,6.936,6.936,0,0,1-1,3.7A6.972,6.972,0,0,1,87.475-81.3Zm-14.343-8.7v6.7h6.542a6.6,6.6,0,0,0,3.7-.853,2.846,2.846,0,0,0,1.26-2.519,2.8,2.8,0,0,0-1.26-2.5,6.733,6.733,0,0,0-3.7-.833Zm7.68,18.529a7.294,7.294,0,0,0,3.921-.853,2.922,2.922,0,0,0,1.321-2.641q0-3.535-5.242-3.535h-7.68v7.03ZM97.674-94.949h6.583v28.443H97.674Z" transform="translate(-11.125 95.436)" fill="#fff"/>
    </g>
    <g id="Group_167" data-name="Group 167" transform="translate(319.3 461.83)">
      <rect id="Rectangle_194" data-name="Rectangle 194" width="2.058" height="31.409" transform="translate(0 13.15)" fill="#fff"/>
      <path id="Path_95" data-name="Path 95" d="M320.864,476.208,319.3,474.98l13.272-13.15-.43,3.053Z" transform="translate(-319.3 -461.83)" fill="#fff" fill-rule="evenodd"/>
      <rect id="Rectangle_195" data-name="Rectangle 195" width="2.058" height="12.374" transform="translate(30.222 42.499) rotate(90)" fill="#fff"/>
      <rect id="Rectangle_196" data-name="Rectangle 196" width="2.058" height="5.46" transform="translate(12.171 42.501) rotate(90)" fill="#fff"/>
      <rect id="Rectangle_197" data-name="Rectangle 197" width="2.058" height="36.829" transform="translate(30.222 43.866) rotate(180)" fill="#fff"/>
      <path id="Path_96" data-name="Path 96" d="M370.35,485.05H385.1v2.058H370.386" transform="translate(-354.875 -478.011)" fill="#fff" fill-rule="evenodd"/>
      <path id="Path_97" data-name="Path 97" d="M358.348,506.389H356.29V465.883l2.058-4.053Z" transform="translate(-345.077 -461.83)" fill="#fff" fill-rule="evenodd"/>
      <path id="Path_98" data-name="Path 98" d="M376.841,562.353H374.78V542.14l2.061.039Z" transform="translate(-357.962 -517.795)" fill="#fff" fill-rule="evenodd"/>
      <path id="Path_99" data-name="Path 99" d="M339.851,562.353H337.79V542.14l2.061.039Z" transform="translate(-332.185 -517.795)" fill="#fff" fill-rule="evenodd"/>
      <g id="Group_164" data-name="Group 164" transform="translate(11.328 16.812)">
        <g id="Group_163" data-name="Group 163" clip-path="url(#clip-path)">
          <path id="Path_100" data-name="Path 100" d="M372.418,535.046l-1.455,1.458-14.293-14.3,1.482-1.428Z" transform="translate(-356.67 -519.722)" fill="#fff" fill-rule="evenodd"/>
        </g>
      </g>
      <g id="Group_166" data-name="Group 166" transform="translate(5.605 16.355)">
        <g id="Group_165" data-name="Group 165" clip-path="url(#clip-path-2)">
          <path id="Path_101" data-name="Path 101" d="M313.315,534.868l-1.455-1.455,14.293-14.293,1.431,1.482Z" transform="translate(-319.72 -518.108)" fill="#fff" fill-rule="evenodd"/>
        </g>
      </g>
      <path id="Path_102" data-name="Path 102" d="M337.79,502.143l.052-2.695,5.872-5.808,1.495,1.552Z" transform="translate(-332.185 -483.997)" fill="#fff" fill-rule="evenodd"/>
    </g>
  </g>
</svg>
