<svg xmlns="http://www.w3.org/2000/svg" width="186" height="45.343" viewBox="0 0 186 45.343">
  <g id="Group_124" data-name="Group 124" transform="translate(-221.215 -471.889)">
    <g id="Group_120" data-name="Group 120" transform="translate(272.878 471.893)">
      <path id="Path_85" data-name="Path 85" d="M19.316-100.492v6.8H32.957v6.754H19.316v10.6H10.575v-30.9H34.811v6.754ZM54.059-75.725a18.288,18.288,0,0,1-8.719-2.053A15.351,15.351,0,0,1,39.27-83.5a15.767,15.767,0,0,1-2.207-8.3,15.767,15.767,0,0,1,2.207-8.3,15.351,15.351,0,0,1,6.07-5.717,18.288,18.288,0,0,1,8.719-2.053,18.714,18.714,0,0,1,7.637,1.5,14.694,14.694,0,0,1,5.651,4.326L61.785-97a9.15,9.15,0,0,0-7.284-3.62,8.99,8.99,0,0,0-4.481,1.1,7.66,7.66,0,0,0-3.046,3.112,9.579,9.579,0,0,0-1.082,4.613,9.578,9.578,0,0,0,1.082,4.613,7.66,7.66,0,0,0,3.046,3.112,8.99,8.99,0,0,0,4.481,1.1,9.15,9.15,0,0,0,7.284-3.62l5.562,5.033A14.694,14.694,0,0,1,61.7-77.226,18.715,18.715,0,0,1,54.059-75.725ZM94.983-92.457a8.664,8.664,0,0,1,4.15,2.892,7.587,7.587,0,0,1,1.5,4.746,7.124,7.124,0,0,1-3.267,6.269Q94.1-76.343,87.92-76.343H71.232v-30.9h15.8q5.916,0,9.006,2.185a6.859,6.859,0,0,1,3.09,5.894,7.342,7.342,0,0,1-1.082,3.951A7.564,7.564,0,0,1,94.983-92.457Zm-15.1-8.476v5.96h6q4.415,0,4.415-3,0-2.958-4.415-2.958Zm7.328,18.277q4.591,0,4.591-3.134t-4.591-3.134H79.885v6.269Zm17.968-24.59h8.741v30.9h-8.741Zm21.543,6.931h-9.491v-6.931h27.68v6.931h-9.447v23.972h-8.741Z" transform="translate(-10.575 107.864)" fill="#fff"/>
      <path id="Path_84" data-name="Path 84" d="M6.792-15.873V-15H2.58v-5.615h4.1v.874H3.623v1.46H6.334v.858H3.623v1.548Zm3.5-3.457a1.79,1.79,0,0,1,1.3.473,1.867,1.867,0,0,1,.489,1.4V-15h-1v-2.326a1.2,1.2,0,0,0-.265-.846.979.979,0,0,0-.754-.285,1.158,1.158,0,0,0-.874.333,1.327,1.327,0,0,0-.321.959V-15h-1v-4.284h.955v.553a1.568,1.568,0,0,1,.626-.449A2.252,2.252,0,0,1,10.289-19.33Zm4.388,4.388a3.835,3.835,0,0,1-1.019-.136,2.563,2.563,0,0,1-.794-.345l.385-.762a2.475,2.475,0,0,0,.694.309,2.883,2.883,0,0,0,.8.116q.9,0,.9-.473a.316.316,0,0,0-.229-.313,3.947,3.947,0,0,0-.734-.168,5.955,5.955,0,0,1-.862-.184,1.324,1.324,0,0,1-.578-.365,1.019,1.019,0,0,1-.245-.726,1.141,1.141,0,0,1,.509-.975,2.318,2.318,0,0,1,1.376-.365,3.97,3.97,0,0,1,.882.1,2.474,2.474,0,0,1,.722.269L16.1-18.2a2.375,2.375,0,0,0-1.227-.321,1.36,1.36,0,0,0-.67.132.4.4,0,0,0-.229.349.349.349,0,0,0,.245.341,3.888,3.888,0,0,0,.758.189,5.849,5.849,0,0,1,.842.184,1.318,1.318,0,0,1,.566.353.984.984,0,0,1,.237.706,1.117,1.117,0,0,1-.521.963A2.459,2.459,0,0,1,14.677-14.943Zm6.955-4.34V-15h-.955v-.545a1.6,1.6,0,0,1-.6.445,1.936,1.936,0,0,1-.778.156,1.862,1.862,0,0,1-1.352-.477,1.883,1.883,0,0,1-.493-1.416v-2.447h1v2.31a1.241,1.241,0,0,0,.261.862.955.955,0,0,0,.742.285,1.124,1.124,0,0,0,.854-.333,1.337,1.337,0,0,0,.317-.959v-2.166Zm2.27.626a1.671,1.671,0,0,1,1.524-.674v.955a1.273,1.273,0,0,0-.233-.024,1.211,1.211,0,0,0-.914.341,1.36,1.36,0,0,0-.329.983V-15h-1v-4.284H23.9Zm2.374-.626h1V-15h-1Zm.505-.706a.644.644,0,0,1-.457-.172.563.563,0,0,1-.184-.429.563.563,0,0,1,.184-.429.644.644,0,0,1,.457-.172.662.662,0,0,1,.457.164.53.53,0,0,1,.184.413.6.6,0,0,1-.18.445A.625.625,0,0,1,26.781-19.988Zm4.243.658a1.79,1.79,0,0,1,1.3.473,1.867,1.867,0,0,1,.489,1.4V-15h-1v-2.326a1.2,1.2,0,0,0-.265-.846.979.979,0,0,0-.754-.285,1.158,1.158,0,0,0-.874.333,1.327,1.327,0,0,0-.321.959V-15h-1v-4.284h.955v.553a1.568,1.568,0,0,1,.626-.449A2.252,2.252,0,0,1,31.025-19.33Zm7.356.048v3.634a2.021,2.021,0,0,1-2.31,2.262,4.287,4.287,0,0,1-1.171-.156A2.485,2.485,0,0,1,33.985-14l.449-.754a2.146,2.146,0,0,0,.71.373,2.783,2.783,0,0,0,.87.14,1.436,1.436,0,0,0,1.035-.321,1.311,1.311,0,0,0,.329-.979v-.225a1.648,1.648,0,0,1-.626.425,2.2,2.2,0,0,1-.81.144,2.324,2.324,0,0,1-1.1-.261,1.959,1.959,0,0,1-.778-.734,2.059,2.059,0,0,1-.285-1.083,2.038,2.038,0,0,1,.285-1.079,1.939,1.939,0,0,1,.778-.726,2.353,2.353,0,0,1,1.1-.257,2.26,2.26,0,0,1,.846.152,1.561,1.561,0,0,1,.638.465v-.57Zm-2.286,3.241a1.315,1.315,0,0,0,.935-.341,1.157,1.157,0,0,0,.365-.886,1.135,1.135,0,0,0-.365-.874,1.324,1.324,0,0,0-.935-.337,1.335,1.335,0,0,0-.943.337,1.135,1.135,0,0,0-.365.874,1.157,1.157,0,0,0,.365.886A1.325,1.325,0,0,0,36.095-16.042Zm8.334-.939V-15H43.386v-1.965l-2.206-3.65H42.3l1.644,2.735,1.66-2.735h1.027Zm4.227,2.037a2.43,2.43,0,0,1-1.171-.281,2.047,2.047,0,0,1-.814-.782,2.209,2.209,0,0,1-.293-1.135,2.187,2.187,0,0,1,.293-1.131,2.056,2.056,0,0,1,.814-.778,2.43,2.43,0,0,1,1.171-.281,2.447,2.447,0,0,1,1.179.281,2.056,2.056,0,0,1,.814.778,2.187,2.187,0,0,1,.293,1.131,2.209,2.209,0,0,1-.293,1.135,2.047,2.047,0,0,1-.814.782A2.447,2.447,0,0,1,48.656-14.943Zm0-.858a1.225,1.225,0,0,0,.914-.369,1.328,1.328,0,0,0,.361-.971,1.328,1.328,0,0,0-.361-.971,1.225,1.225,0,0,0-.914-.369,1.212,1.212,0,0,0-.91.369,1.337,1.337,0,0,0-.357.971,1.337,1.337,0,0,0,.357.971A1.212,1.212,0,0,0,48.656-15.8Zm7.4-3.481V-15H55.1v-.545a1.6,1.6,0,0,1-.6.445,1.936,1.936,0,0,1-.778.156,1.862,1.862,0,0,1-1.352-.477,1.883,1.883,0,0,1-.493-1.416v-2.447h1v2.31a1.241,1.241,0,0,0,.261.862.955.955,0,0,0,.742.285,1.124,1.124,0,0,0,.854-.333,1.337,1.337,0,0,0,.317-.959v-2.166Zm2.27.626a1.671,1.671,0,0,1,1.524-.674v.955a1.273,1.273,0,0,0-.233-.024,1.211,1.211,0,0,0-.914.341,1.36,1.36,0,0,0-.329.983V-15h-1v-4.284h.955Zm9.714-1.957V-15H66.994v-2.406h-2.9V-15H63.047v-5.615H64.09V-18.3h2.9v-2.318Zm3.337,5.671a2.43,2.43,0,0,1-1.171-.281,2.047,2.047,0,0,1-.814-.782A2.209,2.209,0,0,1,69.1-17.14a2.187,2.187,0,0,1,.293-1.131,2.055,2.055,0,0,1,.814-.778,2.43,2.43,0,0,1,1.171-.281,2.447,2.447,0,0,1,1.179.281,2.055,2.055,0,0,1,.814.778,2.187,2.187,0,0,1,.293,1.131,2.209,2.209,0,0,1-.293,1.135,2.047,2.047,0,0,1-.814.782A2.447,2.447,0,0,1,71.373-14.943Zm0-.858a1.225,1.225,0,0,0,.914-.369,1.329,1.329,0,0,0,.361-.971,1.329,1.329,0,0,0-.361-.971,1.225,1.225,0,0,0-.914-.369,1.212,1.212,0,0,0-.91.369,1.337,1.337,0,0,0-.357.971,1.337,1.337,0,0,0,.357.971A1.212,1.212,0,0,0,71.373-15.8Zm8.655-3.53a1.743,1.743,0,0,1,1.283.469,1.9,1.9,0,0,1,.473,1.408V-15h-1v-2.326a1.254,1.254,0,0,0-.249-.846.9.9,0,0,0-.714-.285,1.046,1.046,0,0,0-.81.333,1.358,1.358,0,0,0-.3.951V-15h-1v-2.326a1.254,1.254,0,0,0-.249-.846.9.9,0,0,0-.714-.285,1.049,1.049,0,0,0-.814.329,1.367,1.367,0,0,0-.3.955V-15h-1v-4.284h.955v.545a1.559,1.559,0,0,1,.6-.441,2.043,2.043,0,0,1,.8-.152,1.938,1.938,0,0,1,.854.18,1.387,1.387,0,0,1,.59.533,1.785,1.785,0,0,1,.682-.525A2.214,2.214,0,0,1,80.029-19.33Zm7.107,2.214q0,.1-.016.3H83.759a1.165,1.165,0,0,0,.461.75,1.512,1.512,0,0,0,.926.277,1.561,1.561,0,0,0,1.163-.465l.537.618a1.811,1.811,0,0,1-.73.521,2.659,2.659,0,0,1-.995.176,2.647,2.647,0,0,1-1.243-.281,2.022,2.022,0,0,1-.83-.782,2.209,2.209,0,0,1-.293-1.135,2.241,2.241,0,0,1,.285-1.127,2.02,2.02,0,0,1,.79-.782,2.305,2.305,0,0,1,1.139-.281,2.248,2.248,0,0,1,1.119.277,1.96,1.96,0,0,1,.77.778A2.36,2.36,0,0,1,87.136-17.116ZM84.97-18.528a1.209,1.209,0,0,0-.814.285,1.2,1.2,0,0,0-.405.758h2.431a1.182,1.182,0,0,0-.393-.754A1.2,1.2,0,0,0,84.97-18.528Zm2.759-2.086H88.6l-.072,2.222h-.73Zm3.3,5.671a3.835,3.835,0,0,1-1.019-.136,2.563,2.563,0,0,1-.794-.345l.385-.762a2.476,2.476,0,0,0,.694.309,2.883,2.883,0,0,0,.8.116q.9,0,.9-.473a.316.316,0,0,0-.229-.313,3.948,3.948,0,0,0-.734-.168,5.954,5.954,0,0,1-.862-.184,1.324,1.324,0,0,1-.578-.365,1.019,1.019,0,0,1-.245-.726,1.141,1.141,0,0,1,.509-.975,2.318,2.318,0,0,1,1.376-.365,3.97,3.97,0,0,1,.882.1,2.474,2.474,0,0,1,.722.269l-.385.762a2.375,2.375,0,0,0-1.227-.321,1.36,1.36,0,0,0-.67.132.4.4,0,0,0-.229.349.349.349,0,0,0,.245.341,3.888,3.888,0,0,0,.758.189,5.849,5.849,0,0,1,.842.184,1.318,1.318,0,0,1,.566.353.984.984,0,0,1,.237.706,1.117,1.117,0,0,1-.521.963A2.459,2.459,0,0,1,91.026-14.943Zm5.118-5.671h1.043V-15H96.144Zm4.893,1.283a1.79,1.79,0,0,1,1.3.473,1.867,1.867,0,0,1,.489,1.4V-15h-1v-2.326a1.2,1.2,0,0,0-.265-.846.979.979,0,0,0-.754-.285,1.157,1.157,0,0,0-.874.333,1.327,1.327,0,0,0-.321.959V-15h-1v-4.284h.955v.553a1.568,1.568,0,0,1,.626-.449A2.252,2.252,0,0,1,101.037-19.33Zm5.639,4.1a1.18,1.18,0,0,1-.429.217,1.933,1.933,0,0,1-.533.072,1.514,1.514,0,0,1-1.091-.369,1.42,1.42,0,0,1-.385-1.075v-2.062h-.706v-.8h.706v-.979h1v.979h1.147v.8h-1.147v2.037a.678.678,0,0,0,.152.477.572.572,0,0,0,.441.164.881.881,0,0,0,.562-.176Zm4.709-1.885q0,.1-.016.3h-3.361a1.165,1.165,0,0,0,.461.75,1.512,1.512,0,0,0,.926.277,1.561,1.561,0,0,0,1.163-.465l.537.618a1.811,1.811,0,0,1-.73.521,2.659,2.659,0,0,1-.995.176,2.647,2.647,0,0,1-1.243-.281,2.022,2.022,0,0,1-.83-.782,2.209,2.209,0,0,1-.293-1.135,2.241,2.241,0,0,1,.285-1.127,2.02,2.02,0,0,1,.79-.782,2.305,2.305,0,0,1,1.139-.281,2.248,2.248,0,0,1,1.119.277,1.96,1.96,0,0,1,.77.778A2.359,2.359,0,0,1,111.385-17.116Zm-2.166-1.412a1.21,1.21,0,0,0-.814.285,1.2,1.2,0,0,0-.405.758h2.431a1.182,1.182,0,0,0-.393-.754A1.2,1.2,0,0,0,109.219-18.528Zm7.38-.754v3.634a2.021,2.021,0,0,1-2.31,2.262,4.287,4.287,0,0,1-1.171-.156A2.484,2.484,0,0,1,112.2-14l.449-.754a2.146,2.146,0,0,0,.71.373,2.783,2.783,0,0,0,.87.14,1.436,1.436,0,0,0,1.035-.321,1.311,1.311,0,0,0,.329-.979v-.225a1.648,1.648,0,0,1-.626.425,2.2,2.2,0,0,1-.81.144,2.324,2.324,0,0,1-1.1-.261,1.959,1.959,0,0,1-.778-.734,2.059,2.059,0,0,1-.285-1.083,2.038,2.038,0,0,1,.285-1.079,1.939,1.939,0,0,1,.778-.726,2.353,2.353,0,0,1,1.1-.257,2.26,2.26,0,0,1,.846.152,1.561,1.561,0,0,1,.638.465v-.57Zm-2.286,3.241a1.315,1.315,0,0,0,.935-.341,1.157,1.157,0,0,0,.365-.886,1.135,1.135,0,0,0-.365-.874,1.324,1.324,0,0,0-.935-.337,1.335,1.335,0,0,0-.943.337,1.135,1.135,0,0,0-.365.874,1.157,1.157,0,0,0,.365.886A1.326,1.326,0,0,0,114.313-16.042Zm4.556-2.615a1.671,1.671,0,0,1,1.524-.674v.955a1.273,1.273,0,0,0-.233-.024,1.211,1.211,0,0,0-.914.341,1.36,1.36,0,0,0-.329.983V-15h-1v-4.284h.955Zm2.374-.626h1V-15h-1Zm.505-.706a.644.644,0,0,1-.457-.172.563.563,0,0,1-.185-.429.563.563,0,0,1,.185-.429.644.644,0,0,1,.457-.172.662.662,0,0,1,.457.164.53.53,0,0,1,.184.413.6.6,0,0,1-.18.445A.625.625,0,0,1,121.749-19.988Zm4.388,4.757a1.18,1.18,0,0,1-.429.217,1.933,1.933,0,0,1-.533.072,1.514,1.514,0,0,1-1.091-.369,1.42,1.42,0,0,1-.385-1.075v-2.062h-.706v-.8h.706v-.979h1v.979h1.147v.8H124.7v2.037a.678.678,0,0,0,.152.477.572.572,0,0,0,.441.164.881.881,0,0,0,.562-.176Zm4.757-4.051-2.005,4.628a2.154,2.154,0,0,1-.682.983,1.633,1.633,0,0,1-.971.285,1.992,1.992,0,0,1-.634-.1,1.4,1.4,0,0,1-.513-.289l.4-.738a1.092,1.092,0,0,0,.341.217,1.043,1.043,0,0,0,.4.08.683.683,0,0,0,.437-.136,1.206,1.206,0,0,0,.317-.457l.072-.168-1.869-4.3h1.043l1.348,3.169,1.356-3.169Zm.682,4.34a.641.641,0,0,1-.465-.189.64.64,0,0,1-.193-.477.643.643,0,0,1,.189-.481.644.644,0,0,1,.469-.184.644.644,0,0,1,.469.184.643.643,0,0,1,.189.481.64.64,0,0,1-.193.477A.641.641,0,0,1,131.576-14.943Z" transform="translate(-2.466 58.725)" fill="#fff"/>
    </g>
    <g id="Group_123" data-name="Group 123" transform="translate(221.215 471.889)">
      <g id="Group_121" data-name="Group 121" transform="translate(0 0)">
        <path id="Path_81" data-name="Path 81" d="M226.328,493.143c-1.008,0-1.894.009-2.779,0a2.125,2.125,0,0,1-2.174-1.368,2.089,2.089,0,0,1,.707-2.469q9.135-8.337,18.282-16.663a2.136,2.136,0,0,1,3.241-.015q9.148,8.32,18.282,16.66a2.1,2.1,0,0,1,.731,2.464,2.14,2.14,0,0,1-2.238,1.391c-.859.009-1.721,0-2.668,0l-2.586-4.81-4.3-2.475-4.091-2.475-8.074.108-5.812-.216-5.491,5.92Z" transform="translate(-221.215 -471.889)" fill="#e75c22"/>
      </g>
      <g id="Group_122" data-name="Group 122" transform="translate(2.69 8.156)">
        <path id="Path_82" data-name="Path 82" d="M248.506,499.8a18.086,18.086,0,0,0-14.278,29.187q1.284-1.289,2.563-2.583a1.471,1.471,0,0,1,1.359-.547,1.032,1.032,0,0,0,1.172-.573,11.814,11.814,0,0,1,1.984-17.238,11.884,11.884,0,1,1-.646,18.6.984.984,0,0,0-.564,1.122,1.586,1.586,0,0,1-.6,1.461q-1.289,1.271-2.572,2.551A18.087,18.087,0,1,0,248.506,499.8Z" transform="translate(-230.42 -499.8)" fill="#e75c22"/>
        <path id="Path_83" data-name="Path 83" d="M271.8,549.105a8.228,8.228,0,1,0-8.238-8.214A8.222,8.222,0,0,0,271.8,549.105Z" transform="translate(-253.876 -523.05)" fill="#e75c22"/>
      </g>
    </g>
  </g>
</svg>
