<svg data-name="Group 242" xmlns="http://www.w3.org/2000/svg" width="211.899" height="56.4" viewBox="0 0 211.899 56.4">
    <path data-name="Path 3509" d="M11.472 6.823h7.108V1.995h2.682v-5.063H18.58v-14.116H8.723L.24-1.66v3.655h11.232zm-4.9-9.891 4.56-8.651h.335v8.651zm19.72 10.26a3.33 3.33 0 0 0 3.521-3.386A3.33 3.33 0 0 0 26.292.419a3.33 3.33 0 0 0-3.521 3.386 3.33 3.33 0 0 0 3.521 3.387zm14.82.134c5.7 0 9.858-3.42 9.858-8.282 0-4.493-3.386-7.779-8.282-7.779H38.6l.268-3.353h10.36v-5.1H33.9l-.969 12.846h7.578c2.347 0 3.856 1.174 3.856 3.118a3.182 3.182 0 0 1-3.319 3.219 3.58 3.58 0 0 1-3.521-3.688h-6.4c.196 5.23 4.388 9.019 9.987 9.019zm9.988 7.209h5.432l10.632-31.719h-5.432zm26.76-7.209c5.7 0 9.858-3.42 9.858-8.282 0-4.493-3.386-7.779-8.282-7.779h-4.091l.268-3.353h10.36v-5.1H70.651l-.972 12.846h7.578c2.347 0 3.856 1.174 3.856 3.118a3.182 3.182 0 0 1-3.319 3.219 3.58 3.58 0 0 1-3.521-3.688h-6.4c.196 5.23 4.387 9.019 9.987 9.019z" transform="translate(.095 37.567)" style="fill:#f03c3c"/>
    <g data-name="Group 174">
        <g data-name="Group 73">
            <path data-name="Icon metro-star-full" d="m18.089 8.32-5.361-.779-2.4-4.858-2.4 4.858-5.357.779L6.45 12.1l-.916 5.34 4.8-2.521 4.8 2.521-.916-5.34 3.88-3.782z" transform="translate(-2.571 -2.683)" style="fill:#d5b276"/>
            <path data-name="Icon metro-star-full" d="m18.089 8.32-5.361-.779-2.4-4.858-2.4 4.858-5.357.779L6.45 12.1l-.916 5.34 4.8-2.521 4.8 2.521-.916-5.34 3.88-3.782z" transform="translate(15.553 -2.683)" style="fill:#d5b276"/>
            <path data-name="Icon metro-star-full" d="m18.089 8.32-5.361-.779-2.4-4.858-2.4 4.858-5.357.779L6.45 12.1l-.916 5.34 4.8-2.521 4.8 2.521-.916-5.34 3.88-3.782z" transform="translate(33.677 -2.683)" style="fill:#d5b276"/>
            <path data-name="Icon metro-star-full" d="m18.089 8.32-5.361-.779-2.4-4.858-2.4 4.858-5.357.779L6.45 12.1l-.916 5.34 4.8-2.521 4.8 2.521-.916-5.34 3.88-3.782z" transform="translate(51.801 -2.683)" style="fill:#d5b276"/>
            <path data-name="Icon metro-star-full" d="m18.089 8.32-5.361-.779-2.4-4.858-2.4 4.858-5.357.779L6.45 12.1l-.916 5.34 4.8-2.521 4.8 2.521-.916-5.34 3.88-3.782z" transform="translate(69.925 -2.683)" style="fill:#d5b276"/>
        </g>
    </g>
    <g data-name="Group 175">
        <path data-name="Path 21" d="M36.263 48.351H12.088A12.087 12.087 0 0 1 0 36.262V12.088A12.087 12.087 0 0 1 12.089 0h24.174a12.087 12.087 0 0 1 12.088 12.089v24.174a12.087 12.087 0 0 1-12.089 12.088" transform="translate(118.749 4.356)" style="fill-rule:evenodd;fill:#d22323"/>
        <path data-name="Path 22" d="M22.665 13.687h13.6a6.8 6.8 0 0 0 .7-13.564c-.234-.013-.461-.035-.7-.035H12.088A12.087 12.087 0 0 0 0 12.177v24.174a22.665 22.665 0 0 1 22.665-22.664" transform="translate(118.749 4.334)" style="fill-rule:evenodd;fill:#f03c3c"/>
        <path data-name="Path 23" d="M44.088 28.176a12.088 12.088 0 1 0 12.088 12.088V16.088a12.087 12.087 0 0 1-12.09 12.088" transform="translate(110.925 .422)" style="fill:#b40a0a;fill-rule:evenodd"/>
        <path data-name="Path 24" d="M27.085 8.455a1.306 1.306 0 0 1 1.375 1.3c.008 2.649.008 8.695.008 13.435a1.746 1.746 0 0 1-3.256.878c-2.387-4.107-5.432-9.351-6.769-11.654a1.3 1.3 0 0 1-.128-1.033 1.321 1.321 0 0 1 .672-.8 21.675 21.675 0 0 1 8.1-2.131zm8.628 11.3a1.335 1.335 0 0 1 .9-.528 1.319 1.319 0 0 1 1 .294 14.205 14.205 0 0 1 4 5.841 1.3 1.3 0 0 1-.952 1.689c-1.8.4-5.032 1.092-7.721 1.669a1.747 1.747 0 0 1-1.775-2.737c1.594-2.183 3.5-4.79 4.54-6.227zM24.29 27.826a1.747 1.747 0 0 1-.174 3.259c-2.682.866-5.931 1.917-7.721 2.494a1.31 1.31 0 0 1-1.692-.993 14.18 14.18 0 0 1 .627-7.219 1.3 1.3 0 0 1 .718-.737 1.287 1.287 0 0 1 1.02.011c1.661.721 4.698 2.066 7.222 3.185zm16.334 5.828a1.309 1.309 0 0 1 .816 1.718 14.176 14.176 0 0 1-4.571 5.909 1.3 1.3 0 0 1-1.881-.4c-.975-1.655-2.758-4.732-4.216-7.241a1.746 1.746 0 0 1 2.055-2.54l7.8 2.551zm-12.149 9.067a1.308 1.308 0 0 1-1.42 1.305 14.072 14.072 0 0 1-7.064-2.812 1.3 1.3 0 0 1-.484-.907 1.315 1.315 0 0 1 .325-.976c1.262-1.422 3.649-4.083 5.6-6.253a1.746 1.746 0 0 1 3.045 1.166z" transform="translate(115.205 2.289)" style="fill:#fff;fill-rule:evenodd"/>
        <text data-name="Yelp" transform="translate(172.899 34.293)" style="font-size:20px;font-family:Roboto-Regular,Roboto;fill:#f03c3c"><tspan x="0" y="0">Yelp</tspan></text>
    </g>
    <path data-name="Line 115" transform="translate(103.876 .729)" style="fill:none;stroke:#f03c3c;stroke-width:2px" d="M0 0v55.671"/>
</svg>
