<svg xmlns="http://www.w3.org/2000/svg" width="162.694" height="53.197" viewBox="0 0 162.694 53.197">
    <g data-name="Group 244">
        <path data-name="Path 3510" d="M12.084-9.767h7.343v-4.988H22.2v-5.23h-2.773v-14.583H9.244L.48-18.531v3.776h11.6zM7.027-19.986l4.711-8.937h.346v8.937zm20.368 10.6a3.44 3.44 0 0 0 3.637-3.5 3.44 3.44 0 0 0-3.637-3.5 3.44 3.44 0 0 0-3.637 3.5 3.44 3.44 0 0 0 3.636 3.5zm12.3-25.7c-6.374 0-10.738 3.6-10.738 9.145 0 4.746 3.152 7.9 7.69 7.9a8.126 8.126 0 0 0 2.148-.277l-6.17 8.551h7.932l7.1-10.253a11.35 11.35 0 0 0 2.425-6.2c.001-5.335-4.225-8.868-10.391-8.868zm-.208 5.75a3.13 3.13 0 0 1 3.291 3.429 3.156 3.156 0 0 1-3.291 3.395 3.121 3.121 0 0 1-3.221-3.395 3.114 3.114 0 0 1 3.217-3.431zM47.935-1.8h5.611l10.98-32.768h-5.611zm27.642-7.448c5.889 0 10.184-3.533 10.184-8.556 0-4.642-3.5-8.036-8.556-8.036h-4.226l.277-3.464h10.7v-5.265H68.129l-1 13.267h7.828c2.425 0 3.983 1.212 3.983 3.221a3.287 3.287 0 0 1-3.429 3.325 3.7 3.7 0 0 1-3.637-3.81h-6.62c.208 5.404 4.538 9.318 10.323 9.318z" transform="translate(.887 54.997)" style="fill:#161616"/>
        <g data-name="search (1)">
            <path data-name="Path 3497" d="m10.988 154.841-1.726 6.443-6.308.133a24.835 24.835 0 0 1-.183-23.15l5.616 1.03 2.46 5.582a14.8 14.8 0 0 0 .139 9.961z" transform="translate(113.111 -121.676)" style="fill:#fbbb00"/>
            <path data-name="Path 3498" d="M285.441 208.176a24.781 24.781 0 0 1-8.841 23.964l-7.074-.361-1-6.25a14.775 14.775 0 0 0 6.357-7.545h-13.255v-9.808h23.813z" transform="translate(-123.181 -184.814)" style="fill:#518ef8"/>
            <path data-name="Path 3499" d="M67.865 323.569a24.8 24.8 0 0 1-37.357-7.585l8.034-6.576a14.744 14.744 0 0 0 21.247 7.549z" transform="translate(85.557 -276.244)" style="fill:#28b446"/>
            <path data-name="Path 3500" d="m66.467 5.707-8.031 6.575A14.742 14.742 0 0 0 36.7 20l-8.075-6.61a24.8 24.8 0 0 1 37.842-7.683z" transform="translate(87.259 3.202)" style="fill:#f14336"/>
        </g>
        <path data-name="Line 29" transform="translate(102.681 6.336)" style="fill:none;stroke:#f03c3c;stroke-width:2px" d="M0 0v44.683"/>
        <g data-name="Group 243">
            <g data-name="Group 73">
                <path data-name="Icon metro-star-full" d="m18.089 8.32-5.361-.779-2.4-4.858-2.4 4.858-5.357.779L6.45 12.1l-.916 5.34 4.8-2.521 4.8 2.521-.916-5.34 3.88-3.782z" transform="translate(-2.571 -2.683)" style="fill:#d5b276"/>
                <path data-name="Icon metro-star-full" d="m18.089 8.32-5.361-.779-2.4-4.858-2.4 4.858-5.357.779L6.45 12.1l-.916 5.34 4.8-2.521 4.8 2.521-.916-5.34 3.88-3.782z" transform="translate(15.553 -2.683)" style="fill:#d5b276"/>
                <path data-name="Icon metro-star-full" d="m18.089 8.32-5.361-.779-2.4-4.858-2.4 4.858-5.357.779L6.45 12.1l-.916 5.34 4.8-2.521 4.8 2.521-.916-5.34 3.88-3.782z" transform="translate(33.677 -2.683)" style="fill:#d5b276"/>
                <path data-name="Icon metro-star-full" d="m18.089 8.32-5.361-.779-2.4-4.858-2.4 4.858-5.357.779L6.45 12.1l-.916 5.34 4.8-2.521 4.8 2.521-.916-5.34 3.88-3.782z" transform="translate(51.801 -2.683)" style="fill:#d5b276"/>
                <path data-name="Icon metro-star-full" d="m18.089 8.32-5.361-.779-2.4-4.858-2.4 4.858-5.357.779L6.45 12.1l-.916 5.34 4.8-2.521 4.8 2.521-.916-5.34 3.88-3.782z" transform="translate(69.925 -2.683)" style="fill:#d5b276"/>
            </g>
        </g>
    </g>
</svg>
