<svg xmlns="http://www.w3.org/2000/svg" width="195.077" height="60.453" viewBox="0 0 195.077 60.453">
    <g data-name="Group 240">
        <g data-name="Group 239">
            <path data-name="Path 3510" d="M14.512-4.47h8.88v-6.03h3.351v-6.325h-3.352V-34.46H11.077L.48-15.067v4.567h14.032zM8.4-16.826l5.7-10.806h.419v10.806zM33.025-4.009a4.16 4.16 0 0 0 4.4-4.23 4.16 4.16 0 0 0-4.4-4.23 4.16 4.16 0 0 0-4.4 4.23 4.16 4.16 0 0 0 4.4 4.23zm14.869-31.079c-7.707 0-12.984 4.356-12.984 11.058 0 5.738 3.812 9.55 9.3 9.55a9.826 9.826 0 0 0 2.6-.335L39.35-4.47h9.592l8.586-12.4c1.675-2.346 2.932-5.026 2.932-7.5 0-6.446-5.11-10.718-12.566-10.718zm-.251 6.953a3.785 3.785 0 0 1 3.979 4.147 3.816 3.816 0 0 1-3.979 4.1 3.774 3.774 0 0 1-3.9-4.1c.004-2.597 1.596-4.147 3.9-4.147zm10.22 33.3h6.785L77.926-34.46H71.14zm33.424-9.007c7.12 0 12.314-4.272 12.314-10.346 0-5.613-4.23-9.717-10.346-9.717h-5.11l.335-4.189h12.943v-6.366H82.282l-1.215 16.042h9.466c2.932 0 4.817 1.466 4.817 3.9A3.975 3.975 0 0 1 91.2-10.5a4.472 4.472 0 0 1-4.4-4.607h-8c.257 6.532 5.492 11.265 12.487 11.265z" transform="translate(-.48 55.29)" style="fill:#fff"/>
            <g data-name="search (1)">
                <path data-name="Path 3497" d="M13.287 158.309 11.2 166.1l-7.628.161a30.03 30.03 0 0 1-.221-27.993l6.791 1.245 2.975 6.75a17.891 17.891 0 0 0 .168 12.045z" transform="translate(135.122 -122.077)" style="fill:#fbbb00"/>
                <path data-name="Path 3498" d="M290.423 208.176a29.966 29.966 0 0 1-10.686 28.978l-8.553-.436-1.211-7.557a17.866 17.866 0 0 0 7.687-9.123h-16.03v-11.862h28.795z" transform="translate(-95.869 -183.799)" style="fill:#518ef8"/>
                <path data-name="Path 3499" d="M75.68 326.531a29.987 29.987 0 0 1-45.172-9.171l9.715-7.952a17.829 17.829 0 0 0 25.692 9.128z" transform="translate(108.186 -273.177)" style="fill:#28b446"/>
                <path data-name="Path 3500" d="m74.384 6.9-9.711 7.951a17.826 17.826 0 0 0-26.281 9.334l-9.766-8A29.984 29.984 0 0 1 74.384 6.9z" transform="translate(109.85)" style="fill:#f14336"/>
            </g>
            <g data-name="Group 73">
                <path data-name="Icon metro-star-full" d="m18.426 8.443-5.478-.8-2.448-4.96-2.451 4.964-5.478.8 3.964 3.864-.935 5.452 4.9-2.576 4.9 2.576-.936-5.456 3.964-3.864z" transform="translate(-2.571 -2.683)" style="fill:#f7ba00"/>
                <path data-name="Icon metro-star-full" d="m18.426 8.443-5.478-.8-2.448-4.96-2.451 4.964-5.478.8 3.964 3.864-.935 5.452 4.9-2.576 4.9 2.576-.936-5.456 3.964-3.864z" transform="translate(19.246 -2.683)" style="fill:#f7ba00"/>
                <path data-name="Icon metro-star-full" d="m18.426 8.443-5.478-.8-2.448-4.96-2.451 4.964-5.478.8 3.964 3.864-.935 5.452 4.9-2.576 4.9 2.576-.936-5.456 3.964-3.864z" transform="translate(41.062 -2.683)" style="fill:#f7ba00"/>
                <path data-name="Icon metro-star-full" d="m18.426 8.443-5.478-.8-2.448-4.96-2.451 4.964-5.478.8 3.964 3.864-.935 5.452 4.9-2.576 4.9 2.576-.936-5.456 3.964-3.864z" transform="translate(62.878 -2.683)" style="fill:#f7ba00"/>
                <path data-name="Icon metro-star-full" d="m18.426 8.443-5.478-.8-2.448-4.96-2.451 4.964-5.478.8 3.964 3.864-.935 5.452 4.9-2.576 4.9 2.576-.936-5.456 3.964-3.864z" transform="translate(84.695 -2.683)" style="fill:#f7ba00"/>
            </g>
            <path data-name="Line 29" transform="translate(122.51 3.79)" style="fill:none;stroke:#f03c3c;stroke-width:2px" d="M0 0v54.03"/>
        </g>
    </g>
</svg>
