<svg xmlns="http://www.w3.org/2000/svg" width="225.335" height="45.372" viewBox="0 0 225.335 45.372">
    <g data-name="Group 92">
        <path data-name="Path 3506" d="M9.315 0h5.724v-3.888H17.2v-4.077h-2.16v-11.367H7.1L.27-6.831v2.943h9.045zM5.373-7.965l3.672-6.966h.27v6.966zM21.249.3a2.681 2.681 0 0 0 2.835-2.73 2.681 2.681 0 0 0-2.835-2.727 2.681 2.681 0 0 0-2.835 2.727A2.681 2.681 0 0 0 21.249.3zm11.934.105c4.59 0 7.938-2.754 7.938-6.669 0-3.618-2.727-6.264-6.669-6.264h-3.294l.216-2.7h8.343v-4.1H27.378l-.783 10.337h6.1c1.89 0 3.105.945 3.105 2.511a2.562 2.562 0 0 1-2.673 2.592 2.883 2.883 0 0 1-2.835-2.97h-5.155C25.3-2.646 28.674.405 33.183.405z" transform="translate(-.27 32.055)" style="fill:#f03c3c"/>
        <g data-name="Group 84">
            <path data-name="Path 21" d="M33.931 45.242H11.31A11.309 11.309 0 0 1 0 33.93V11.31A11.309 11.309 0 0 1 11.312 0h22.62a11.309 11.309 0 0 1 11.31 11.312v22.62a11.309 11.309 0 0 1-11.312 11.31" transform="translate(69.757 .069)" style="fill-rule:evenodd;fill:#d22323"/>
            <path data-name="Path 22" d="M21.207 12.812h12.724A6.363 6.363 0 0 0 34.582.121c-.219-.012-.431-.033-.65-.033H11.31A11.309 11.309 0 0 0 0 11.4v22.62a21.207 21.207 0 0 1 21.207-21.208" transform="translate(69.757 .043)" style="fill-rule:evenodd;fill:#f03c3c"/>
            <path data-name="Path 23" d="M43.31 27.4a11.31 11.31 0 1 0 11.31 11.31V16.088A11.309 11.309 0 0 1 43.309 27.4" transform="translate(60.378 -4.646)" style="fill:#b40a0a;fill-rule:evenodd"/>
            <path data-name="Path 24" d="M26.275 8.455a1.222 1.222 0 0 1 1.287 1.219c.007 2.479.007 8.136.007 12.571a1.634 1.634 0 0 1-3.047.821l-6.334-10.9a1.219 1.219 0 0 1-.12-.966 1.237 1.237 0 0 1 .629-.746 20.281 20.281 0 0 1 7.578-1.994zm8.073 10.574a1.25 1.25 0 0 1 .841-.494 1.235 1.235 0 0 1 .94.275 13.292 13.292 0 0 1 3.747 5.465 1.215 1.215 0 0 1-.891 1.58c-1.682.373-4.708 1.022-7.225 1.562a1.634 1.634 0 0 1-1.66-2.562 2640.26 2640.26 0 0 0 4.248-5.826zM23.66 26.58a1.635 1.635 0 0 1-.163 3.05c-2.509.81-5.549 1.793-7.225 2.333a1.226 1.226 0 0 1-1.583-.929 13.268 13.268 0 0 1 .587-6.755 1.218 1.218 0 0 1 .672-.69 1.2 1.2 0 0 1 .954.011c1.555.674 4.398 1.933 6.758 2.98zm15.283 5.453a1.225 1.225 0 0 1 .763 1.607 13.265 13.265 0 0 1-4.276 5.53 1.213 1.213 0 0 1-1.76-.374c-.912-1.549-2.58-4.427-3.944-6.776a1.634 1.634 0 0 1 1.923-2.374zm-11.367 8.484a1.224 1.224 0 0 1-1.329 1.222 13.167 13.167 0 0 1-6.61-2.631 1.215 1.215 0 0 1-.452-.849 1.231 1.231 0 0 1 .3-.913c1.181-1.33 3.414-3.821 5.238-5.851a1.634 1.634 0 0 1 2.849 1.091z" transform="translate(65.509 -2.409)" style="fill:#fff;fill-rule:evenodd"/>
            <g data-name="Group 73">
                <path data-name="Icon metro-star-full" d="m17.73 8.19-5.237-.761-2.343-4.746-2.342 4.746-5.237.761 3.79 3.694-.895 5.216 4.684-2.463 4.685 2.463-.895-5.216 3.79-3.694z" transform="translate(124.171 11.944)" style="fill:#f7ba00"/>
                <path data-name="Icon metro-star-full" d="m17.73 8.19-5.237-.761-2.343-4.746-2.342 4.746-5.237.761 3.79 3.694-.895 5.216 4.684-2.463 4.685 2.463-.895-5.216 3.79-3.694z" transform="translate(145.03 11.944)" style="fill:#f7ba00"/>
                <path data-name="Icon metro-star-full" d="m17.73 8.19-5.237-.761-2.343-4.746-2.342 4.746-5.237.761 3.79 3.694-.895 5.216 4.684-2.463 4.685 2.463-.895-5.216 3.79-3.694z" transform="translate(165.888 11.944)" style="fill:#f7ba00"/>
                <path data-name="Icon metro-star-full" d="m17.73 8.19-5.237-.761-2.343-4.746-2.342 4.746-5.237.761 3.79 3.694-.895 5.216 4.684-2.463 4.685 2.463-.895-5.216 3.79-3.694z" transform="translate(186.746 11.944)" style="fill:#f7ba00"/>
                <path data-name="Icon metro-star-full" d="m17.73 8.19-5.237-.761-2.343-4.746-2.342 4.746-5.237.761 3.79 3.694-.895 5.216 4.684-2.463 4.685 2.463-.895-5.216 3.79-3.694z" transform="translate(207.605 11.944)" style="fill:#f7ba00"/>
            </g>
        </g>
        <path data-name="Line 28" transform="translate(55.002)" style="fill:none;stroke:#f03c3c;stroke-width:2px" d="M0 0v43.756"/>
    </g>
</svg>
