<svg xmlns="http://www.w3.org/2000/svg" width="47.896" height="49.51" viewBox="0 0 47.896 49.51">
    <g data-name="Group 211">
        <g data-name="Group 210">
            <path data-name="Path 113" d="m48.388 46.493-.788-1.681V35.22a13.738 13.738 0 0 0-13.849-13.852H32.68v-1.344a1.342 1.342 0 0 0-1.34-1.34h-.477V9.168a.717.717 0 1 0-1.434 0v9.515h-.477a1.342 1.342 0 0 0-1.34 1.34v1.344H7.243v-1.343a1.342 1.342 0 0 0-1.34-1.34h-.477V9.168a.717.717 0 1 0-1.434 0v9.515h-.477a1.342 1.342 0 0 0-1.34 1.34v1.344H.717a.717.717 0 0 0 0 1.434h3.274v11.988H.717a.717.717 0 1 0 0 1.434h6.1a.717.717 0 1 0 0-1.434H5.426V22.8h13.486v11.989H9.681a.717.717 0 1 0 0 1.434h23.353v8.542l-1 1.6a1.154 1.154 0 0 0 .978 1.767h14.33a1.154 1.154 0 0 0 1.046-1.642zM5.808 21.368h-2.2v-1.25h2.2zm23.238-1.25h2.2v1.25h-2.2zm3.988 14.671H20.346V22.8h12.688zm13.127 0H37.4l8.182-3.347a12.354 12.354 0 0 1 .579 3.347zm-1.1-4.686-8.2 3.355 6.369-6.246a12.452 12.452 0 0 1 1.835 2.888zm-10.6-7.279a12.374 12.374 0 0 1 7.777 3.348l-6.672 6.543 2.484-6.568a.717.717 0 1 0-1.342-.507l-2.248 5.943zM33.513 46.7l.635-1.013h2.261a.717.717 0 0 0 0-1.434h-1.941v-8.03h11.7v8.03h-6.8a.717.717 0 1 0 0 1.434h7.062l.47 1.013z" transform="rotate(-90 20.53 28.48)" style="fill:#fff;stroke:#fff"/>
        </g>
    </g>
    <g data-name="Group 213">
        <g data-name="Group 212">
            <path data-name="Path 114" d="M377.529 440.954a.717.717 0 0 0-.717.717v4.495a.717.717 0 1 0 1.434 0v-4.495a.717.717 0 0 0-.717-.717z" transform="rotate(-90 -4.678 394.809)" style="fill:#fff;stroke:#fff"/>
        </g>
    </g>
    <g data-name="Group 215">
        <g data-name="Group 214">
            <path data-name="Path 115" d="M420.311 440.954a.717.717 0 0 0-.717.717v4.495a.717.717 0 1 0 1.434 0v-4.495a.717.717 0 0 0-.717-.717z" transform="rotate(-90 14.687 414.174)" style="fill:#fff;stroke:#fff"/>
        </g>
    </g>
    <g data-name="Group 217">
        <g data-name="Group 216">
            <path data-name="Path 116" d="M461.327 440.954a.717.717 0 0 0-.717.717v4.495a.717.717 0 0 0 1.434 0v-4.495a.717.717 0 0 0-.717-.717z" transform="rotate(-90 33.252 432.739)" style="fill:#fff;stroke:#fff"/>
        </g>
    </g>
</svg>
