<svg xmlns="http://www.w3.org/2000/svg" width="184.364" height="56.991" viewBox="0 0 184.364 56.991">
    <g data-name="Group 91">
        <path data-name="Path 3508" d="M1.9 0h6.12c2.82 0 4.86-1.68 4.86-3.96a3.366 3.366 0 0 0-2.46-3.24v-.2a3.062 3.062 0 0 0 2.06-2.92c0-2.2-1.86-3.78-4.46-3.78H1.9zm1.82-8.04v-4.46H7.8c1.68 0 2.88.94 2.88 2.24S9.48-8.04 7.8-8.04zm0 6.44v-4.84h4.04c1.94 0 3.32 1 3.32 2.38 0 1.42-1.38 2.46-3.32 2.46zM15.84 0h9.88v-1.6h-8.04v-4.9h7.04v-1.6h-7.04v-4.4h7.84v-1.6h-9.68zm18 .5c3.46 0 5.48-1.66 5.48-4.3 0-3.2-2.9-3.76-5.46-4.18-2.08-.32-3.96-.66-3.96-2.52 0-1.52 1.24-2.5 3.52-2.5 2.42 0 3.82 1.18 3.82 3.18H39c-.02-2.98-2.12-4.78-5.58-4.78-3.4 0-5.34 1.66-5.34 4.2 0 3.06 2.8 3.72 5.34 4.12 2.12.34 4.08.66 4.08 2.6 0 1.58-1.34 2.58-3.64 2.58-2.64 0-4.18-1.3-4.2-3.48h-1.8c0 3.14 2.28 5.08 5.98 5.08zm11.1-.5h1.82v-12.5h4.68v-1.6H40.28v1.6h4.66zm13.64 0h1.82v-14.1h-1.82zm5.62 0h1.82v-11.7h.2L72.9 0h2.6v-14.1h-1.82v11.7h-.18l-6.68-11.7H64.2z" transform="translate(86 22.102)" style="fill:#fff"/>
        <path data-name="Path 3507" d="M9.051.378a8.426 8.426 0 0 0 4.515-1.134l.8.756H18.1l-2.455-2.268a7.819 7.819 0 0 0 1.827-5.25c0-4.788-3.4-7.812-8.421-7.812-5.04 0-8.442 3.024-8.442 7.812S4.011.378 9.051.378zm0-3.633A3.94 3.94 0 0 1 5.04-7.518a3.9 3.9 0 0 1 4.011-4.2 3.929 3.929 0 0 1 3.99 4.2 4.875 4.875 0 0 1-.546 2.31l-1.974-1.806H6.783l3.906 3.4a3.479 3.479 0 0 1-1.638.359zm17.22 3.57c4.2 0 7.056-2.52 7.056-6.489v-8.862H28.9v8.715c0 1.806-1.05 3-2.625 3-1.6 0-2.625-1.176-2.625-3v-8.715h-4.435v8.862c0 3.969 2.856 6.489 7.056 6.489zM33.558 0h4.557l.714-2.289h5.4L44.94 0h4.56l-4.7-15.036h-6.51zm6.153-5.439 1.722-5.838h.21l1.722 5.838zM50.9 0h10.92v-3.78h-6.485v-11.256H50.9zm12.6 0h4.431v-15.036H63.5zm10.546 0h4.431v-11.4h4.7v-3.633H69.342v3.633h4.7zM88.83 0h4.431v-5.124l5.1-9.912H93.7l-2.56 6.048h-.21l-2.73-6.048h-4.6l5.23 9.912z" transform="translate(86 47.102)" style="fill:#fff"/>
        <path data-name="Path 28" d="M21.275 61.394a1.64 1.64 0 0 1-2.359.643c-20.268-12.547-20.053-43 .536-55.227a1.211 1.211 0 0 1 1.609.429 1.085 1.085 0 0 1-.429 1.5c-19.2 11.474-18.981 38.927 0 50.509a1.7 1.7 0 0 1 .643 2.145z" transform="translate(.321 -5.309)" style="fill:#4cb274"/>
        <g data-name="Group 90">
            <path data-name="Path 29" d="M20.008 13.508a10.989 10.989 0 0 1-4.718 2.145A5.34 5.34 0 0 1 11 14.9c2.681-3.537 7.292-3.858 9.008-1.392z" transform="translate(.837 -4.929)" style="fill:#79dca0"/>
            <path data-name="Path 30" d="M13.57 5.4a10.229 10.229 0 0 0-3.86 5.684A4.175 4.175 0 0 0 11 15.48c2.574-3.432 4.29-7.614 2.574-10.08z" transform="translate(.733 -5.4)" style="fill:#79dca0"/>
            <path data-name="Path 31" d="M15.143 18.254a10.585 10.585 0 0 1-3.753 3.217 5.537 5.537 0 0 1-4.29.429c1.5-4.182 5.684-5.469 8.043-3.646z" transform="translate(.555 -4.528)" style="fill:#79dca0"/>
            <path data-name="Path 32" d="M6.633 12.2A9.214 9.214 0 0 0 4.7 18.42a4.273 4.273 0 0 0 2.466 3.753c1.505-3.753 1.826-8.043-.533-9.973z" transform="translate(.379 -4.908)" style="fill:#79dca0"/>
            <path data-name="Path 33" d="M11.963 23.92a9.835 9.835 0 0 1-2.788 3.968A5.388 5.388 0 0 1 5.1 29.39c.536-4.29 4.075-6.649 6.863-5.47z" transform="translate(.41 -4.081)" style="fill:#79dca0"/>
            <path data-name="Path 34" d="M2.145 20.3a9.561 9.561 0 0 0-.214 6.434 4.091 4.091 0 0 0 3.432 2.9c.429-4.079-.429-8.154-3.218-9.334z" transform="translate(.148 -4.322)" style="fill:#79dca0"/>
            <path data-name="Path 35" d="M10.354 30.1a10.749 10.749 0 0 1-1.609 4.611 5.2 5.2 0 0 1-3.539 2.469c-.643-4.289 2.252-7.506 5.148-7.08z" transform="translate(.411 -3.615)" style="fill:#79dca0"/>
            <path data-name="Path 36" d="M0 29.1a9.466 9.466 0 0 0 1.5 6.22 4.222 4.222 0 0 0 4.075 1.93C4.936 33.175 3.005 29.529 0 29.1z" transform="translate(.038 -3.685)" style="fill:#79dca0"/>
            <path data-name="Path 37" d="M10.453 36.5a10.248 10.248 0 0 1-.322 4.826 5.624 5.624 0 0 1-2.788 3.432c-1.715-4.076.215-7.936 3.11-8.258z" transform="translate(.526 -3.149)" style="fill:#79dca0"/>
            <path data-name="Path 38" d="M.4 38.1a8.662 8.662 0 0 0 3.11 5.576 4.351 4.351 0 0 0 4.4.858C6.191 40.783 3.3 37.78.4 38.1z" transform="translate(.07 -3.035)" style="fill:#79dca0"/>
            <path data-name="Path 39" d="M12.267 42.6a9.748 9.748 0 0 1 .965 4.826 5.492 5.492 0 0 1-1.716 4.074c-2.788-3.539-1.93-7.828.751-8.9z" transform="translate(.75 -2.708)" style="fill:#79dca0"/>
            <path data-name="Path 40" d="M3 46.819a9.676 9.676 0 0 0 4.5 4.718 4.173 4.173 0 0 0 4.5-.322c-2.681-3.324-6.22-5.469-9.008-4.4z" transform="translate(.258 -2.422)" style="fill:#79dca0"/>
            <path data-name="Path 41" d="M15.8 48a11.68 11.68 0 0 1 2.466 4.5 5.574 5.574 0 0 1-.322 4.4c-4.075-2.574-4.5-7.078-2.145-8.9z" transform="translate(1.08 -2.317)" style="fill:#79dca0"/>
            <path data-name="Path 42" d="M8.1 54.66a10.6 10.6 0 0 0 5.9 3.431 4.377 4.377 0 0 0 4.4-1.5c-3.866-2.575-7.941-3.755-10.3-1.931z" transform="translate(.627 -1.899)" style="fill:#79dca0"/>
        </g>
        <path data-name="Path 43" d="M43.91 61.394a1.64 1.64 0 0 0 2.359.643c20.268-12.547 20.053-43-.536-55.227a1.211 1.211 0 0 0-1.609.429 1.085 1.085 0 0 0 .429 1.5c19.2 11.474 18.874 38.82-.107 50.509a1.8 1.8 0 0 0-.536 2.145z" transform="translate(3.208 -5.309)" style="fill:#4cb274"/>
        <path data-name="Path 44" d="M44.6 13.508a10.989 10.989 0 0 0 4.718 2.145 5.34 5.34 0 0 0 4.29-.751c-2.681-3.539-7.292-3.86-9.008-1.394z" transform="translate(3.269 -4.929)" style="fill:#79dca0"/>
        <path data-name="Path 45" d="M50.747 5.4a10.229 10.229 0 0 1 3.861 5.684 4.175 4.175 0 0 1-1.287 4.4c-2.574-3.432-4.29-7.614-2.574-10.08z" transform="translate(3.664 -5.4)" style="fill:#79dca0"/>
        <path data-name="Path 46" d="M49.4 18.254a10.585 10.585 0 0 0 3.753 3.217 5.537 5.537 0 0 0 4.29.429c-1.502-4.182-5.684-5.469-8.043-3.646z" transform="translate(3.616 -4.528)" style="fill:#79dca0"/>
        <path data-name="Path 47" d="M57.616 12.2a9.214 9.214 0 0 1 1.93 6.22 4.273 4.273 0 0 1-2.466 3.753c-1.502-3.753-1.823-8.043.536-9.973z" transform="translate(4.087 -4.908)" style="fill:#79dca0"/>
        <path data-name="Path 48" d="M52.5 23.92a9.835 9.835 0 0 0 2.788 3.968 5.388 5.388 0 0 0 4.075 1.5c-.536-4.29-4.075-6.649-6.863-5.469z" transform="translate(3.841 -4.081)" style="fill:#79dca0"/>
        <path data-name="Path 49" d="M62.124 20.3a9.561 9.561 0 0 1 .214 6.434 4.091 4.091 0 0 1-3.432 2.9c-.428-4.079.43-8.154 3.218-9.334z" transform="translate(4.297 -4.322)" style="fill:#79dca0"/>
        <path data-name="Path 50" d="M54 30.1a10.749 10.749 0 0 0 1.609 4.611 5.2 5.2 0 0 0 3.539 2.466C59.791 32.891 56.9 29.674 54 30.1z" transform="translate(3.949 -3.615)" style="fill:#79dca0"/>
        <path data-name="Path 51" d="M64.376 29.1a9.466 9.466 0 0 1-1.5 6.22 4.222 4.222 0 0 1-4.076 1.93c.643-4.075 2.574-7.721 5.576-8.15z" transform="translate(4.297 -3.685)" style="fill:#79dca0"/>
        <path data-name="Path 52" d="M53.81 36.5a10.248 10.248 0 0 0 .322 4.826 5.624 5.624 0 0 0 2.788 3.432c1.716-4.076-.214-7.936-3.11-8.258z" transform="translate(3.924 -3.149)" style="fill:#79dca0"/>
        <path data-name="Path 53" d="M64.107 38.1A8.662 8.662 0 0 1 61 43.678a4.351 4.351 0 0 1-4.4.858c1.716-3.753 4.611-6.756 7.507-6.436z" transform="translate(4.138 -3.035)" style="fill:#79dca0"/>
        <path data-name="Path 54" d="M51.966 42.6A9.748 9.748 0 0 0 51 47.426a5.492 5.492 0 0 0 1.717 4.074c2.788-3.539 1.93-7.828-.751-8.9z" transform="translate(3.731 -2.708)" style="fill:#79dca0"/>
        <path data-name="Path 55" d="M61.608 46.819a9.676 9.676 0 0 1-4.5 4.718 4.173 4.173 0 0 1-4.5-.322c2.681-3.324 6.22-5.469 9.008-4.4z" transform="translate(3.848 -2.422)" style="fill:#79dca0"/>
        <path data-name="Path 56" d="M48.486 48a11.68 11.68 0 0 0-2.466 4.5 5.574 5.574 0 0 0 .322 4.4c4.074-2.573 4.503-7.077 2.144-8.9z" transform="translate(3.351 -2.317)" style="fill:#79dca0"/>
        <path data-name="Path 57" d="M56.595 54.66a10.6 10.6 0 0 1-5.9 3.432 4.377 4.377 0 0 1-4.4-1.5c3.866-2.576 7.941-3.756 10.3-1.932z" transform="translate(3.392 -1.899)" style="fill:#79dca0"/>
        <path data-name="Path 58" d="m43.19 38.407 2.252 13.512-12.118-6.327-12.117 6.327 2.252-13.512-9.759-9.544 13.512-2.038L33.324 14.6l6.113 12.225 13.512 2.038z" transform="translate(1.033 -4.734)" style="fill:#f7ca3c"/>
        <path data-name="Path 59" d="M32 14.6v18.981l6.113-6.756z" transform="translate(2.357 -4.734)" style="fill:#f2bd27"/>
        <path data-name="Path 60" d="m51.624 27.9-9.759 9.544L32 32.618z" transform="translate(2.357 -3.772)" style="fill:#f2bd27"/>
        <path data-name="Path 61" d="m13.7 27.9 9.759 9.544 9.866-4.826z" transform="translate(1.033 -3.772)" style="fill:#f2bd27"/>
        <path data-name="Path 62" d="M32 32.3v12.011l12.118 6.327z" transform="translate(2.357 -3.453)" style="fill:#f2bd27"/>
        <path data-name="Path 63" d="M32.818 32.3v12.011L20.7 50.638z" transform="translate(1.539 -3.453)" style="fill:#f2bd27"/>
    </g>
</svg>
