<svg xmlns="http://www.w3.org/2000/svg" width="51.91" height="52.096" viewBox="0 0 51.91 52.096">
    <g data-name="Electric Plug">
        <path data-name="Path 106" d="M40.934 24.976a.848.848 0 0 0-.721-.4h-9.334V11.849a.848.848 0 0 0-1.6-.382L19.094 31.831a.848.848 0 0 0 .755 1.23h9.333v12.728a.848.848 0 0 0 .653.823.771.771 0 0 0 .2.025.848.848 0 0 0 .755-.467l10.178-20.363a.854.854 0 0 0-.034-.832zM30.879 42.191v-9.978a.848.848 0 0 0-.848-.848h-8.807l7.959-15.918v9.978a.848.848 0 0 0 .848.848h8.807z" transform="translate(-4.076 -2.864)" style="fill:#fff;stroke:#fff"/>
        <path data-name="Path 107" d="M50.988 12.827a4.232 4.232 0 0 0-.314-5.617l-2.4-2.4a.869.869 0 0 0-1.2 0l-.6.6-2.4-2.4-1.2 1.2 2.4 2.4-1.2 1.2-2.4-2.4-1.2 1.2 2.4 2.4-.6.6a.848.848 0 0 0 0 1.2l2.4 2.4a4.188 4.188 0 0 0 5.006.713 23.485 23.485 0 0 1 4.353 13.686A23.779 23.779 0 0 1 21.265 49.6l-.645 1.57a25.476 25.476 0 0 0 35.111-23.562 25.174 25.174 0 0 0-4.743-14.781zm-1.51-.815a2.571 2.571 0 0 1-3.606 0l-1.8-1.807 3.606-3.6 1.8 1.8a2.556 2.556 0 0 1 0 3.606z" transform="translate(-4.321 -1.653)" style="fill:#fff;stroke:#fff"/>
        <path data-name="Path 108" d="M27.455 2A25.486 25.486 0 0 0 2 27.455a25.174 25.174 0 0 0 4.743 14.781 4.232 4.232 0 0 0 .314 5.617l2.4 2.4a.82.82 0 0 0 .594.246.84.84 0 0 0 .6-.246l.6-.6 2.4 2.4 1.2-1.2-2.4-2.4 1.2-1.2 2.4 2.4 1.2-1.2-2.4-2.4.6-.6a.848.848 0 0 0 0-1.2l-2.4-2.4a4.231 4.231 0 0 0-5.006-.713A23.485 23.485 0 0 1 3.7 27.455 23.784 23.784 0 0 1 27.455 3.7a23.531 23.531 0 0 1 9.011 1.77l.645-1.578A25.4 25.4 0 0 0 27.455 2zM8.253 43.05a2.571 2.571 0 0 1 3.606 0l1.8 1.807-3.606 3.6-1.8-1.8a2.556 2.556 0 0 1 0-3.606z" transform="translate(-1.5 -1.5)" style="fill:#fff;stroke:#fff"/>
    </g>
</svg>
