<svg xmlns="http://www.w3.org/2000/svg" width="49.508" height="49.507" viewBox="0 0 49.508 49.507">
    <g data-name="home (1)">
        <g data-name="Group 203">
            <g data-name="Group 202">
                <path data-name="Path 109" d="M439.651 354.283a.966.966 0 1 0 .283.684.974.974 0 0 0-.283-.684z" transform="translate(-395.648 -319.77)" style="fill:#fff"/>
            </g>
        </g>
        <g data-name="Group 205">
            <g data-name="Group 204">
                <path data-name="Path 110" d="M48.541 47.575h-4.255v-8.993a.967.967 0 1 0-1.934 0v8.993H11.8v-9.09a.967.967 0 1 0-1.934 0v9.089H7.155v-25.43L24.754 8.4l17.6 13.739v9.191a.967.967 0 1 0 1.934 0v-7.676l.169.132a.967.967 0 0 0 1.279-.078l3.488-3.488a.967.967 0 0 0-.089-1.446l-5.814-4.539v-9.69a.967.967 0 0 0-.967-.967h-5.6a.967.967 0 0 0-.967.967v3.8L25.349.205a.967.967 0 0 0-1.19 0L.375 18.774a.967.967 0 0 0-.089 1.446l3.488 3.488a.967.967 0 0 0 1.279.078l.169-.132v23.921H.967a.967.967 0 0 0 0 1.934h47.574a.967.967 0 0 0 0-1.934zM37.715 5.512h3.67v7.213l-3.67-2.865zM4.537 21.735l-2.11-2.11L24.754 2.194l22.327 17.431-2.11 2.11L25.349 6.416a.967.967 0 0 0-1.19 0z" transform="translate(0 -.001)" style="fill:#fff"/>
            </g>
        </g>
        <g data-name="Group 207">
            <g data-name="Group 206">
                <path data-name="Path 111" d="M169.532 218h-18.565a.967.967 0 0 0-.967.967v18.565a.967.967 0 0 0 .967.967h18.565a.967.967 0 0 0 .967-.967v-18.565a.967.967 0 0 0-.967-.967zm-10.25 18.565h-7.349v-7.349h7.349zm0-9.283h-7.349v-7.349h7.349zm9.283 9.283h-7.349v-7.349h7.349zm0-9.283h-7.349v-7.349h7.349z" transform="translate(-135.496 -196.921)" style="fill:#fff"/>
            </g>
        </g>
        <g data-name="Group 209">
            <g data-name="Group 208">
                <path data-name="Path 112" d="M102.967 348.506a.967.967 0 0 0-.967.967v.016a.967.967 0 0 0 1.934 0v-.016a.967.967 0 0 0-.967-.967z" transform="translate(-92.137 -314.808)" style="fill:#fff"/>
            </g>
        </g>
    </g>
</svg>
