<svg xmlns="http://www.w3.org/2000/svg" width="97.943" height="97.826" viewBox="0 0 97.943 97.826">
    <path data-name="Path 3436" d="M1.716 61.598A46.7 46.7 0 0 1 .05 46.855a48.681 48.681 0 0 1 13.316-31.469 49.367 49.367 0 0 1 12.6-9.647A48.725 48.725 0 0 1 43.554.324 46.329 46.329 0 0 1 51.82.087a48.875 48.875 0 0 1 33.76 16.235 48.577 48.577 0 0 1 10.4 18.518 49.883 49.883 0 0 1 1.931 16.039 47.541 47.541 0 0 1-3.4 16.185 48.916 48.916 0 0 1-20.319 23.824 48.89 48.89 0 0 1-17.155 6.242A49.009 49.009 0 0 1 7.486 74.861a45.667 45.667 0 0 1-5.771-13.263m78.519 22.516a48.507 48.507 0 0 0 6.979-7.673 44.382 44.382 0 0 0 5.536-9.946 47.369 47.369 0 0 0 .05-35.054A47.277 47.277 0 0 0 57.052 2.596a47.859 47.859 0 0 0-14.376-.278 46.94 46.94 0 0 0-27.263 79.509 46.871 46.871 0 0 0 16.518 10.882 45.647 45.647 0 0 0 15.925 3.12 55.629 55.629 0 0 0 8.178-.472A45.32 45.32 0 0 0 70.9 90.544a43.206 43.206 0 0 0 9.335-6.43z"/>
    <path data-name="Path 3438" d="M15.191 50.615a33.9 33.9 0 0 1 45.092-33.579 32.928 32.928 0 0 1 17.693 14.312 32.521 32.521 0 0 1 4.773 14.715A33.525 33.525 0 0 1 68.307 76.67a34.1 34.1 0 0 1-11.045 4.994 32.392 32.392 0 0 1-14.623.416 33.486 33.486 0 0 1-18.8-10.586 32.7 32.7 0 0 1-7.578-14.114 29.961 29.961 0 0 1-1.073-6.764m66.025-5.876a30.879 30.879 0 0 0-3.33-10.681 32.671 32.671 0 0 0-26.956-17.471 31.2 31.2 0 0 0-10.975 1.207 32.6 32.6 0 0 0-23.389 30.551 30.565 30.565 0 0 0 1.327 9.628 32.308 32.308 0 0 0 38.737 22.372 31.57 31.57 0 0 0 16.218-9.483 31.936 31.936 0 0 0 7.967-15.341 34.092 34.092 0 0 0 .404-10.782z"/>
    <path data-name="Path 3439" d="M6.864 48.445c-1.026.316-1.236 1.213-1.585 2-1.487-1.182-1.516-2.381-.111-3.606a58.7 58.7 0 0 1 4.616-4.072l-.056-.294c-.967 0-1.935-.008-2.9 0-1.322.014-1.867-.446-2.16-1.9a13.522 13.522 0 0 1 2.988.208c1.375.106 2.74.343 4.116.418 1.071.058 1.55.67 1.911 1.654-2.361.547-3.709 2.463-5.589 3.864a8.076 8.076 0 0 0 2.748.3 2.35 2.35 0 0 1 2.347 2.187c-2.107-.193-4.158-.695-6.325-.759z"/>
    <path data-name="Path 3440" d="M92.707 56.35a4.808 4.808 0 0 1 .615 1.372.343.343 0 0 1-.41.193c-2.406-.231-4.813-.443-7.216-.706-.852-.093-.9-.956-1.414-1.559 2.305-.81 3.9-2.391 5.745-4.07-1.032-.113-1.839-.231-2.65-.285-1.682-.111-1.868-.232-2.552-1.9a1.248 1.248 0 0 1 .815-.022c1.781.208 3.561.427 5.343.629.557.063 1.337-.657 1.617-1.447.057-.161-.022-.378.188-.479 1.191.939 1.359 2.054.417 3.093a37.812 37.812 0 0 1-4.494 4.095c-.195.155-.461.238-.567.566a13.524 13.524 0 0 0 3.646.177c.353-.037.68-.077.917.343z"/>
    <path data-name="Path 3441" d="M15.989 79.815c-.232-.353.079-.431.236-.564 1.328-1.133 2.669-2.25 3.994-3.386.676-.579.753-1.187.319-2.186-.081-.187-.188-.362-.284-.545a1.729 1.729 0 0 1 2.434 1.2 29.317 29.317 0 0 1 .163 6.312c-.006.247-.159.5.046.791a11.941 11.941 0 0 0 2.264-2.236 1.171 1.171 0 0 1 1.583-.489 3.894 3.894 0 0 1 .926.31c.082.337-.17.444-.333.591q-2.437 2.2-4.881 4.393a1.329 1.329 0 0 1-.953.452c-1.121-.021-1.252-.21-.92-1.25.583-1.825.341-3.707.374-5.668a9.35 9.35 0 0 0-2.25 2.007 1.471 1.471 0 0 1-1.583.484c-.358-.089-.722-.128-1.135-.216z"/>
    <path data-name="Path 3442" d="m15.371 22.472 3.881 3.352a1.941 1.941 0 0 1 .1 2.537c-.3 0-.455-.233-.63-.41-1.278-1.3-2.659-2.491-4.027-3.7-.507-.446-.923-.765-1.437-.048-.063.088-.218.111-.438.215a2.434 2.434 0 0 1 .11-2.115 9.768 9.768 0 0 1 2.564-2.8 2.256 2.256 0 0 1 2.475-.414 2.116 2.116 0 0 1 .917 2.312c-.073.549.287.618.638.682a11.093 11.093 0 0 0 3.817.282 4.135 4.135 0 0 1-.184 1.73c-.093.367-.365.47-.715.458a22.885 22.885 0 0 1-4.213-.749c-.333-.074-.392-.294-.31-.592a3.836 3.836 0 0 0 .2-.831 1.335 1.335 0 0 0-1.12-1.392 2.142 2.142 0 0 0-1.841.967c-.077.212.045.346.213.516z"/>
    <path data-name="Path 3443" d="M58.611 9.392a3.726 3.726 0 0 0 .364-.652c.432-1.1.429-1.1-.624-1.68a.448.448 0 0 1-.271-.4c.717-.271 1.424-.81 2.265-.517A44.6 44.6 0 0 0 64.872 7.6a.4.4 0 0 1 .35.384c-.633.3-1.2.9-1.991.792a16.345 16.345 0 0 1-2.162-.585 1.256 1.256 0 0 0-.164.209c-.6 1.322-.531 1.459.879 1.815.546.138 1.09.281 1.645.425a2.343 2.343 0 0 1-2.6 1.007c-.587-.206-.945-.214-1.142.514-.332 1.232-.374 1.223.507 1.511 1 .328 2 .651 3.178 1.033-1.051.62-1.789 1.377-3.011.69a9.078 9.078 0 0 0-2.6-.819c-.728-.151-.752-.47-.5-1.038.262-.595.458-1.218.724-1.811.294-.654.2-1.1-.559-1.267a.368.368 0 0 1-.295-.31c.313-.51.969-.445 1.48-.758z"/>
    <path data-name="Path 3444" d="M91.458 40.789a3.043 3.043 0 0 0-.182-2.64 3.332 3.332 0 0 1 2.027 3.437 4.055 4.055 0 0 1-4.731 3.14 6.419 6.419 0 0 1-4.131-2.841 2.77 2.77 0 0 1 .17-3.28c1.555-2.042 3.888-2.1 5.744-.139-.17.327-.458.144-.684.135a3.8 3.8 0 0 0-3.753 2.5 1.449 1.449 0 0 0 1.443 2.121 4.249 4.249 0 0 0 4.097-2.433z"/>
    <path data-name="Path 3445" d="M25.595 18.32a32.774 32.774 0 0 0-1.062-4.7 2.549 2.549 0 0 1 .579-2.166c.212-.369.488-.048.709.12a37.782 37.782 0 0 0 5.594 3.4 3.026 3.026 0 0 0 1.969.486 3.988 3.988 0 0 1-.628 1.788c-.2.341-.6.235-.935.2a1.339 1.339 0 0 1-.3-.093c-.6-.218-1.2-.9-1.763-.662a14.38 14.38 0 0 0-2.461 1.629c-.328.227-.242.524-.145.837a2.516 2.516 0 0 1-1.059 2.79 27.132 27.132 0 0 0-.5-3.629m.759-2.048a1.727 1.727 0 0 0 .384.964 13.048 13.048 0 0 0 1.945-1.373l-2.81-1.782c.178.816.314 1.443.483 2.195z"/>
    <path data-name="Path 3446" d="M80.24 72.947c.244-.3.362-.637.678-.8a2.242 2.242 0 0 1-.023 2.717c-.427.56-.4.9.245 1.2.349.162.6.5 1.043.594.848-.989 1.53-2.116 2.307-3.208a2.124 2.124 0 0 1-.042 2.726c-.776.91-1.364 1.955-2.1 3-.745-.583-1.472-1.117-2.157-1.7-.528-.45-.963-.593-1.349.137a.341.341 0 0 1-.388.156c-.384-.5.133-1.235-.35-1.73a6.942 6.942 0 0 0-1.417-1.018c-.516.181-.573.813-1.208.934-.013-.9-.365-1.8.315-2.59a18.154 18.154 0 0 0 2.584-3.61c.041-.08.142-.13.3-.264a2.568 2.568 0 0 1 .085 2.63 9.681 9.681 0 0 1-.631.894c-.3.368-.327.621.108.95.883.668.86.7 1.5-.249.15-.246.31-.483.5-.769z"/>
    <path data-name="Path 3447" d="M62.071 86.993a11.241 11.241 0 0 0 2.2 1.7c1.039.532 1.735.19 1.9-.964a6.316 6.316 0 0 0-.7-4.222.926.926 0 0 1 .077-1.2c.446-.548.863-1.121 1.36-1.772a5.9 5.9 0 0 1 .422 2.106 20.736 20.736 0 0 1-.608 6.416 4.56 4.56 0 0 1-.289.805 1.805 1.805 0 0 1-2.92.9 17.108 17.108 0 0 1-4.382-3.722c-1.172-1.42-1.076-2.163.484-3.388a12.592 12.592 0 0 0 2.456 3.341z"/>
    <path data-name="Path 3448" d="M39.798 5.624c.991.4 1.009.589.338 1.3-.5.527-.935.735-1.581.231a1.119 1.119 0 0 0-1.506.1 1.007 1.007 0 0 0-.444 1.089 1.119 1.119 0 0 0 .889.782 15.678 15.678 0 0 0 2.722.2c1.635.057 2.353 1.2 1.643 2.662a5.767 5.767 0 0 1-3.729 3.211 2.407 2.407 0 0 1-1.887-.214c-.675-.373-.729-.822-.193-1.365.037-.037.075-.073.114-.107l.9-.765c.367.2.72.412 1.084.6a1.734 1.734 0 0 0 1.365.072c.54-.17 1-.452.958-1.066a1.162 1.162 0 0 0-1.063-1.091 33.474 33.474 0 0 0-2.79-.312c-1.68-.116-2.319-1.353-1.4-2.764a6.108 6.108 0 0 1 3.522-2.562 1.618 1.618 0 0 1 1.058-.001z"/>
    <path data-name="Path 3449" d="M30.647 83.682c.584.671 1.154 1.282 1.676 1.93a1.564 1.564 0 0 1-.691 2.689 5.993 5.993 0 0 1-4.71-.1 2.66 2.66 0 0 1-1.513-1.7.668.668 0 0 1 .1-.732c.51-.49 1.134-.238 1.715-.227.454.009.39.409.452.7a2.233 2.233 0 0 0 1.192 1.559.949.949 0 0 0 1.221-.08 1.013 1.013 0 0 0 .245-1.333 16.53 16.53 0 0 0-1.729-2.21c-.448-.58-1-1.167-.629-1.958a2.2 2.2 0 0 1 1.9-1.167 5.875 5.875 0 0 1 3.341.513 3.845 3.845 0 0 1 .789.5 1.407 1.407 0 0 1 .58 1.3c-.088.483-.6.268-.932.314a.838.838 0 0 1-1.057-.76 1.4 1.4 0 0 0-.072-.223 1.328 1.328 0 0 0-1.249-.9.961.961 0 0 0-1.05.51c-.269.549.089.934.421 1.375z"/>
    <path data-name="Path 3450" d="M47.234 6.689c.237-1.2-.863-.814-1.365-1.248a1.966 1.966 0 0 1 1.419-1.261 7.379 7.379 0 0 1 4.7.659 2.009 2.009 0 0 1-.011 3.63 5.607 5.607 0 0 1-2.206.766c0-.483.411-.474.624-.639a1.478 1.478 0 0 0 .725-1.6 1.69 1.69 0 0 0-1.4-1.213c-.52-.122-.828.012-.837.653-.021 1.533-.144 3.066-.137 4.6a1.4 1.4 0 0 1-.887 1.537c-.311.124-.48.48-1.028.572.141-2.158.272-4.271.403-6.456z"/>
    <path data-name="Path 3451" d="M13.062 31.452a3.118 3.118 0 0 1-.155 1.452c-.182.453 0 .665.432.788.375.107.732.273 1.1.4a1.991 1.991 0 0 1 1.337 2.285c-1.258-.249-2.366-.913-3.549-1.24-.448.263-.343.86-.763 1.087-.392-.1-.321-.454-.413-.7-.147-.387-.2-.825-.665-1a4.669 4.669 0 0 0-1.318-.455c-.575-.023-.435.677-.72.981-.069.074-.148.138-.327.3-.332-1.022-.962-1.843-.333-2.962a17.232 17.232 0 0 0 1.474-4.336 2.615 2.615 0 0 1 1.043 2.331 5.261 5.261 0 0 1-.186.6c-.5 1.449-.5 1.449 1.1 1.89.506-.866.6-1.9 1.053-2.869.579.299.672.881.89 1.448z"/>
    <path data-name="Path 3452" d="M79.581 19.101a4.456 4.456 0 0 1-.868-1.627c1.127.19 2.138.2 2.827 1.354a17.3 17.3 0 0 0 3.365 3.769c.186.169.424.316.415.62a2.407 2.407 0 0 1-2.843-.766c-.783-.844-.787-.848-1.627-.078-.959.88-1.953 1.729-2.847 2.671a1.311 1.311 0 0 1-1.649.395c-.4-.168-.87-.141-1.315-.538.8-.645 1.557-1.243 2.3-1.868.875-.739 1.716-1.517 2.6-2.244.434-.357.522-.668.1-1.083a5.438 5.438 0 0 1-.458-.605z"/>
    <path data-name="Path 3453" d="M75.591 13.101c.28.451.463.872-.1 1.157a1.331 1.331 0 0 1-1.686-.378 2.026 2.026 0 0 0-1.7-1.439 2.091 2.091 0 0 0-1.847 1.136 3.86 3.86 0 0 0 .925 5.468c.218.166.521.265.592.586a3.049 3.049 0 0 1-4.043-1.536 4.271 4.271 0 0 1 .251-4.53 4.812 4.812 0 0 1 4.687-1.735 4.294 4.294 0 0 1 2.921 1.271z"/>
    <path data-name="Path 3454" d="M68.644 81.034a2.93 2.93 0 0 1 1.546-2.2 38.673 38.673 0 0 0 3.659-2.911c.2-.159.33-.411.628-.413a2.283 2.283 0 0 1-.652 2.491c-1.016.966-1.015.965-.116 2.063.84 1.026 1.673 2.057 2.521 3.076a.617.617 0 0 1 .152.643c-.213.6-.433 1.2-.69 1.913-.846-1.143-1.6-2.186-2.381-3.211-.519-.683-1.081-1.334-1.607-2.011-.261-.336-.5-.353-.855-.112-.7.474-1.421.9-2.1 1.334-.268-.262-.176-.434-.105-.662z"/>
    <path data-name="Path 3455" d="M39.822 87.275c-.431 1.562-.936 3.042-1.238 4.575-.038.192-.1.355-.3.416-.615.185-1.231.365-1.814.537-.244-.264-.08-.447-.022-.635.56-1.814 1.166-3.614 1.633-5.458.143-.566-.026-.808-.544-.976a6.543 6.543 0 0 1-2.262-1.085c1.06-.335 1.792-.939 2.853-.478a20.9 20.9 0 0 0 4.938 1.445 1.073 1.073 0 0 1 .712.264 2.321 2.321 0 0 1-2.85.876c-.527-.138-.929-.176-1.106.519z"/>
    <path data-name="Path 3456" d="M54.692 92.128a.744.744 0 0 1-.412.893 7.012 7.012 0 0 1-1.308.864.464.464 0 0 1-.229-.521c.059-1.849-.159-3.689-.167-5.534 0-.721-.286-.959-.981-.942a5.294 5.294 0 0 1-2.228-.184 2.476 2.476 0 0 1 2.366-1.43 21.129 21.129 0 0 0 4.808-.348 2.276 2.276 0 0 1 1.2 0c-.668 1.5-1.942 1.846-3.421 1.9a32.04 32.04 0 0 0 .372 5.302z"/>
    <path data-name="Path 3457" d="M81.066 32.282a29.081 29.081 0 0 0 5.3-2.943c.555-.422.554-.424.255-1.2a5.779 5.779 0 0 1 2.532 1.34c.4.381-.139.7-.45.882-.947.545-1.921 1.043-2.887 1.556-.759.4-1.531.781-2.279 1.2-1.375.777-1.725.741-3-.4-.014-.324.31-.281.529-.435z"/>
    <path data-name="Path 3458" d="M8.926 54.326c.969-.132 1.867-.263 2.766-.388 1.227-.171 1.836.2 2.382 1.48a25.054 25.054 0 0 1-3.9.553c-.924.145-1.834.346-2.744.558-.5.117-.809.3-.619.948a6.012 6.012 0 0 1-1.871-2.014c-.233-.443.227-.638.6-.693 1.101-.165 2.209-.297 3.386-.444z"/>
    <path data-name="Path 3459" d="M45.41 88.441c-.066-.634.124-1.306-.853-1.511a10.534 10.534 0 0 1 2.12-1.382c.279-.143.5-.008.628.273a1.77 1.77 0 0 1 .133.994c-.266 1.859-.042 3.735-.215 5.6a1.716 1.716 0 0 1-1.017 1.64 2.953 2.953 0 0 1-.986.474c.027-2.024.473-4.016.19-6.088z"/>
    <path data-name="Path 3460" d="M18.955 69.382c.986.5 1.036.93.172 1.514-1.769 1.2-3.561 2.358-5.341 3.537a.689.689 0 0 1-.661.138 5.673 5.673 0 0 1-1.674-.883c.637-.395 1.2-.785 1.8-1.109a28.921 28.921 0 0 0 3.894-2.736c.4-.312.245-.613.089-1.011a10.522 10.522 0 0 1 1.721.55z"/>
    <path data-name="Path 3461" d="M10.855 65.831a1.306 1.306 0 1 1 1.221-2.31 1.291 1.291 0 0 1 .641 1.585c-.289.719-.904.976-1.862.725z"/>
    <path data-name="Path 3462" d="M86.832 64.622c.325.826.175 1.463-.429 1.818a1.128 1.128 0 0 1-1.5-.145 1.294 1.294 0 0 1-.194-1.7c.486-.702 1.307-.71 2.123.027z"/>
    <path data-name="Path 3464" d="M29.086 49.346c.007-3.124.024-6.174.007-9.224a1.33 1.33 0 0 1 .616-1.231 216.367 216.367 0 0 0 4.831-3.589 2.345 2.345 0 0 1 1.508-.511q8.993.029 17.986.013a2.47 2.47 0 0 1 1.638.58 154.87 154.87 0 0 0 4.67 3.546 1.288 1.288 0 0 1 .619 1.156q-.027 5.161 0 10.322a1.233 1.233 0 0 1-.53 1.057q-2.57 2.042-5.114 4.117a1.737 1.737 0 0 1-1.213.422c-6.046-.143-12.094-.04-18.14-.057a1.827 1.827 0 0 1-1.222-.419c-1.789-1.475-3.589-2.937-5.375-4.415-.568-.47-.178-1.129-.285-1.766m4.41-11.809c-.92.683-1.83 1.381-2.766 2.042a1.009 1.009 0 0 0-.492.9c.007 3.1 0 6.2 0 9.3a.954.954 0 0 0 .319.836c1.5 1.21 2.988 2.436 4.481 3.655a1.488 1.488 0 0 0 .908.4c.858.029 1.715.118 2.572.12 5.03.012 10.06 0 15.089.016a2.275 2.275 0 0 0 1.556-.588c1.235-1.04 2.451-2.11 3.753-3.059a2.178 2.178 0 0 0 .968-1.91c.007-2.762 0-5.525 0-8.287a1.792 1.792 0 0 0-.846-1.564 75.063 75.063 0 0 1-3.61-2.739 2.867 2.867 0 0 0-1.924-.691c-5.056.014-10.114.082-15.167-.037-1.826-.035-3.434.165-4.837 1.605z"/>
    <path data-name="Path 3465" d="M69.042 50.31c-.008 1.876.046 3.672-.078 5.47-.041.6-.211.847-.823.819-.832-.038-1.667-.025-2.5-.022-.466 0-.693-.155-.724-.679a5 5 0 0 0-2.364-4.1 1.24 1.24 0 0 1-.637-1.207c.053-3.413.064-6.827.063-10.241a1.371 1.371 0 0 1 .72-1.332 4.541 4.541 0 0 0 2.216-3.746c.043-.739.316-.955.991-.925.754.033 1.513.045 2.266 0 .716-.04.935.229.929.949-.042 4.977-.043 9.955-.057 15.01m-2.231-14.8c-.5-.067-.688.207-.79.648a6.115 6.115 0 0 1-2.446 3.692.968.968 0 0 0-.446.851c0 3.151-.017 6.3-.026 9.453a.782.782 0 0 0 .246.709 6.781 6.781 0 0 1 2.643 4.017c.167.687.814.387 1.267.42.425.031.5-.282.5-.629.009-1.457.094-2.913.114-4.367.063-4.609.01-9.219.036-13.828-.003-.735-.206-1.088-1.104-.966z"/>
    <path data-name="Path 3466" d="M39.535 77.283c.1-.6.18-1.14.272-1.741-.445.254-.846.517-1.275.719-1.023.481-1.465.273-1.816-.795a2.809 2.809 0 0 0-.479-1.1c-.448.78-.9 1.555-2 1.185.035-.614.538-.973.824-1.441.413-.674 1.008-1.227.821-2.172-.1-.514.441-.649.87-.675.5-.031.415.381.407.669a6.781 6.781 0 0 0 .764 3.152c.265.554.632.622 1.128.275a3.822 3.822 0 0 0 1.2-1.313c.4-.741.926-.907 1.91-.6-1.309 1.021-1.242 2.5-1.4 3.894-.058.509-.469.5-.819.537-.396.049-.518-.166-.407-.594z"/>
    <path data-name="Path 3467" d="M70.768 28.309c.577 2.09-.494 3.482-2.59 3.413a2.842 2.842 0 0 1-2.656-1.313c-.269-.462-.316-.744.136-1.116a17.742 17.742 0 0 0 1.68-1.622c.381-.41 1.047-.8.246-1.445 1.286-.464 2.268.2 3.184 2.083m-3.445 1.128c-.393.315-.576.653-.18 1.109.368.425.722.854 1.37.558a2.028 2.028 0 0 0 .486-3.291 7.476 7.476 0 0 0-1.678 1.624z"/>
    <path data-name="Path 3468" d="M36.118 63.7c.183.925.345 1.789.525 2.743a6.443 6.443 0 0 0 .866-1.1 1.121 1.121 0 0 1 1.586-.592c.137.342-.1.509-.256.707-.653.84-1.312 1.676-1.961 2.519a1.031 1.031 0 0 1-.736.517c-.539.043-.828-.063-.723-.733a7.155 7.155 0 0 0-.4-3.112c-.826.672-1.1 2.136-2.6 1.444a5.532 5.532 0 0 1 1.082-1.4c.625-.807 1.619-1.479.707-2.68 1.1-.278 1.434-.1 1.685.791.086.275.137.556.225.896z"/>
    <path data-name="Path 3469" d="M39.847 25.502c-.157.173-.243.352-.544.342l-1.329-4.035c-.284-.239-.566.079-.842-.165a1.246 1.246 0 0 1 .654-.946 4.353 4.353 0 0 1 2.914-.645 1.006 1.006 0 0 1 .844 1.581.862.862 0 0 0 .327 1.35 6.559 6.559 0 0 1 .736.581c.212.187.532.232.671.508-.579 1.06-.8 1.119-1.672.415-.323-.262-.625-.551-.932-.833-.413-.38-.8-.694-.2-1.315a.726.726 0 0 0-.495-1.228c-.581-.107-.86.167-.7.736.237.826.508 1.642.78 2.457a1.019 1.019 0 0 1-.212 1.197z"/>
    <path data-name="Path 3470" d="M72.63 66.785c.348.464.033.825-.025 1.261a3.737 3.737 0 0 1-1.278-.943c-.384-.349-.645-.341-.937.085-.233.341-.507.654-.815 1.047.633.612 1.588 1.1.949 2.287l-1.571-1.238c-.38-.109-.426.372-.819.253-.071-.756-.168-1.6-1.352-1.413.082-.559-.162-1.238.327-1.491s.826.393 1.226.653c.128.083.256.164.412.263a6.273 6.273 0 0 0 1.283-1.469 1.02 1.02 0 0 0-1.107-.476 2.147 2.147 0 0 1 .253-1.575 21.753 21.753 0 0 1 3.454 2.756z"/>
    <path data-name="Path 3471" d="M25.585 60.409c.426.276 1.039.465.318 1.011-1.247.945-1.248.944-.206 2.33.3.074.483-.112.654-.31a.9.9 0 0 1 1.417.124c.168.277.026.449-.194.575-1.062.607-2.122 1.218-3.2 1.8-.52.28-.929-.022-1.371-.332a3.9 3.9 0 0 1 1.39-.935c.388-.224.46-.447.206-.806a2.942 2.942 0 0 1-.306-.544c-.249-.587-.593-.731-1.131-.312a1.081 1.081 0 0 1-1.719-.2 2.556 2.556 0 0 1 1.066-.736c.483-.239.805-.494.215-1.3 1.047.418 1.894.706 2.089-.484.311-.153.51.003.772.119z"/>
    <path data-name="Path 3472" d="M44.988 68.015a9.837 9.837 0 0 0-.4 2.56 1.225 1.225 0 0 1-1.26 1.245 13.335 13.335 0 0 1 .191-2.281c-.015-.681.58-1.481-.43-1.988a.941.941 0 0 1 .909-.694 5.464 5.464 0 0 1 2.374.344 1.289 1.289 0 0 1 .943 1.042 1.147 1.147 0 0 1-.738 1.172 2.439 2.439 0 0 0-.279.2 10.325 10.325 0 0 0 1.181 2.151c-.838.822-1.217.768-1.684-.211-.156-.328-.286-.67-.459-.99-.308-.571-.586-1.089.377-1.324a.531.531 0 0 0 .344-.7c-.173-.451-.586-.544-1.069-.526z"/>
    <path data-name="Path 3473" d="M55.983 68.988c-.253-.23-.275-.427-.064-.639.306-.307.6-.653.292-1.09s-.77-.3-1.213-.255c-.114 1.5 1.518 2.836.324 4.368-.451-.061-.473-.416-.564-.692a50.957 50.957 0 0 1-.731-2.388c-.138-.51-.33-.88-.933-.662a.615.615 0 0 1 .2-.815 4.244 4.244 0 0 1 3.03-.994 1.11 1.11 0 0 1 .855 1.656c-.077.19-.189.366-.3.579a8.329 8.329 0 0 0 1.975 1.461c-.529 1.08-.9 1.162-1.758.423z"/>
    <path data-name="Path 3474" d="M65.879 65.296c-.283.194-.521.352-.768.5a.74.74 0 0 1-1.082-.228c-.626-.8-1.29-1.563-1.882-2.275-.42-.1-.556.348-.891.233-.2-.341 0-.669.106-.965a4.233 4.233 0 0 1 3.288-1.936 2.206 2.206 0 0 1 2.019 2.445 3.871 3.871 0 0 1-.789 2.229m-2.087-1.842c.2.236.416.466.608.711a.671.671 0 0 0 1.02.14c.4-.263.84-.537.685-1.1a1.938 1.938 0 0 0-1.509-1.324 1.583 1.583 0 0 0-1.626.53z"/>
    <path data-name="Path 3475" d="M35.211 25.366c-.682.557.2.765.075 1.208.967-.08 1.472-.932 2.379-1.052a1.569 1.569 0 0 1-.751 1.5c-.526.281-1.041.588-1.538.917-.389.257-.607.151-.786-.241-.226-.493-.477-.975-.683-1.39-.353-.178-.565.155-.866.033-.237-.467.424-.828.158-1.367-.289-.585-.695-.561-1.254-.41a1.751 1.751 0 0 1 .964-1.54c.836-.4 1.615-.911 2.481-1.41.154 1.194-.631 1.684-1.444 2.106.215.893.311.933 1.02.564.312-.162.551-.488 1.016-.46a1.642 1.642 0 0 1-.771 1.542z"/>
    <path data-name="Path 3476" d="M73.984 58.89c-.225.11-.193.464-.48.394-.26-.064-.336-.313-.4-.537a3.966 3.966 0 0 1 1.225-3.143.876.876 0 0 1 1.385.3c.134.218.227.46.343.7a11.645 11.645 0 0 0 2.4-.66c.516 1.035.409 1.3-.641 1.579-.426.115-.86.2-1.294.285-.359.067-.7.033-.791-.409-.085-.4-.289-.737-.7-.713-.491.029-.629.462-.748.974.855.281 1.674.6 2.517.813a1.41 1.41 0 0 1 1.167 1.544 35.561 35.561 0 0 0-3.983-1.127z"/>
    <path data-name="Path 3477" d="M53.671 74.614c-.473-.01-.687-.117-.365-.548a3.383 3.383 0 0 1 3.752-.454.935.935 0 0 1 .11 1.495c-.381.435-.308.759.08 1.131.408.391.774.825 1.165 1.247-.579.888-.937.923-1.6.112-.214-.262-.4-.544-.63-.794-.4-.447-.668-.857-.042-1.357a.606.606 0 0 0 .085-.854.879.879 0 0 0-1.1-.246 9.349 9.349 0 0 0 .286 2.272c.139.783.233 1.577-.821 1.994a19.466 19.466 0 0 1-.467-2.708c-.087-.44-.006-.934-.453-1.29z"/>
    <path data-name="Path 3478" d="M61.048 26.712c.165-.24.3-.432.432-.625.488-.7.488-.7.109-1.491.67-.136 1.32-.324 1.494-1.134-.05-.262-.429-.248-.53-.568a1.023 1.023 0 0 1 1.236-.251c.97.513 1.847 1.19 2.9 1.706-1.022.908-1.775.18-2.53-.2a1.107 1.107 0 0 0-.507.722c.35.491 1.039.551 1.448 1.063a1.5 1.5 0 0 1-1.972-.068 2.282 2.282 0 0 0-.724 1.005l1.968 1.288a1.124 1.124 0 0 1-1.441.235c-.555-.336-1.131-.64-1.7-.953-.296-.161-.454-.356-.183-.729z"/>
    <path data-name="Path 3479" d="M31.49 69.292c.359-.364-.085-.594-.084-.872 1.261-.544 3.344.965 3.2 2.31a.931.931 0 0 1-.994.9c-.518.01-.669.274-.659.744a5.044 5.044 0 0 0 .126 1.769c-1.221.2-1.48-.036-1.353-1.21.039-.361.057-.726.105-1.086.057-.424.229-.735.738-.727.377.006.786-.066.854-.509.071-.458-.224-.763-.659-.987a12.476 12.476 0 0 0-1.669 2.15 1.343 1.343 0 0 1-1.755.533 28.941 28.941 0 0 1 2.15-3.015z"/>
    <path data-name="Path 3480" d="M61.335 67.576c.605-.276 1.043-.785 1.755-.826a1.374 1.374 0 0 1-.719 1.36 12.147 12.147 0 0 0-1.64.891c-.322.262-.518 0-.656-.276-.206-.417-.406-.837-.568-1.172-.341-.263-.556.134-.844-.026-.141-.438.451-.777.177-1.294a.726.726 0 0 0-1.141-.351c.1-1.1.153-1.137 3.1-2.7.274.774.127 1.122-.626 1.537-.294.162-.789.232-.492.759.277.491.619.169.934.025.273-.126.477-.4.875-.436a1.8 1.8 0 0 1-.7 1.5c-.247.181-.34.373-.176.66.148.268.244.612.721.349z"/>
    <path data-name="Path 3481" d="M49.09 71.802c-.337.279-.618.553-1.052.525-.122-.422.175-.667.3-.963q.694-1.655 1.412-3.3a2.522 2.522 0 0 1 .367-.679c.531-.6.93-.512 1.243.219.3.693.592 1.388.929 2.062a5.8 5.8 0 0 0 1.221 1.869c-.9.863-1.11.872-1.631.091a1.6 1.6 0 0 0-2.789.176m1.5-2.74c-.091-.118-.165-.44-.334-.089a2.716 2.716 0 0 0-.45 1.285c.39-.058.768.067 1.149-.177.017-.357-.209-.628-.366-1.019z"/>
    <path data-name="Path 3482" d="M27.131 68.279c-.38.366-.006.519.14.729.3.432.872.649 1.016 1.271a1.405 1.405 0 0 1-1.456-.326c-.144-.15-.284-.3-.423-.458-.976-1.087-.976-1.088.051-2.089.367-.358.367-.358.186-1.055 1.677-.28 1.705-.4 1.461-1.341.837-.263 2.441 1.017 3.112 2.5-.94.27-1.5-.294-2.02-.909-.681.367-.681.367.352 1.864-.539.071-1.055.171-1.458-.239-.348-.352-.623-.265-.961.053z"/>
    <path data-name="Path 3483" d="M46.627 77.136a3.879 3.879 0 0 1-2.268 1.644 1.834 1.834 0 0 1-2.279-1.66 1.707 1.707 0 0 1 1.548-2.043 2.435 2.435 0 0 0 .184 2.374c.231.336.5.637.942.571a.981.981 0 0 0 .8-.852 2.179 2.179 0 0 0-1.465-2.782 2.273 2.273 0 0 1-.265-.149 1.705 1.705 0 0 1 2.363.013 2.237 2.237 0 0 1 .44 2.884z"/>
    <path data-name="Path 3484" d="M73.104 62.499c.211-.374.279-.787.7-1.012a1.277 1.277 0 0 1 .2 1.456c-.233.41-.08.6.272.8.448.256.591-.035.776-.343a6.18 6.18 0 0 1 .871-1.474c.705 1.478-.443 2.346-.808 3.4-.893-.013-1.372-1.378-2.359-.442-.281-.383-.261-.864-.685-1.141-.5-.326-.74.039-1.043.262-.533-.663.177-2.772 1.246-3.743a1.336 1.336 0 0 1 .017 1.763c-.169.276-.233.526.12.717.292.151.543.209.693-.243z"/>
    <path data-name="Path 3485" d="M61.823 72.845a12.612 12.612 0 0 0 2.34 1.606c-.256 1.018-.616 1.243-1.361.74a1.3 1.3 0 0 0-1.5-.044c-.5.26-.94.437-.828 1.187.059.4-.367.755-.913 1.119.133-1.5-.12-2.85-.1-4.21.006-.431-.162-.864.065-1.3.331-.639.5-.685 1.024-.208.4.365.819.717 1.272 1.111m-.943.864c-.208-.125-.322-.411-.681-.378a2.008 2.008 0 0 0 .269 1.474c.245-.35 1.264-.187.413-1.097z"/>
    <path data-name="Path 3486" d="M48.12 75.951a3.391 3.391 0 0 1 3.038-2.038c.34.027.773.056.691.525a.723.723 0 0 1-.921.613c-.2-.041-.376-.18-.573-.239a.907.907 0 0 0-1.162.821 2.345 2.345 0 0 0 1.041 2.363c.383.273.832.446 1.209.083.414-.4.156-.8-.157-1.161-.1-.114-.185-.242-.292-.383.339-.466.737-.735 1.256-.407a.943.943 0 0 1 .308 1.412 2.732 2.732 0 0 1-2.922 1.611 2.694 2.694 0 0 1-1.516-3.2z"/>
    <path data-name="Path 3487" d="M55.826 22.641c-.9-.146-1.368.145-1.444 1.046-.064.755-.683.775-1.265.918a2.4 2.4 0 0 1 .221-1.443c.16-.517.284-.974-.433-1.149.11-.616.853-.507 1.007-1.052.192-.682-.174-.878-.785-1.012.65-.447 1.141-.983 1.97-.555a12.291 12.291 0 0 0 2.48.63c-.525.82-.773.879-2.237.563-.477.749-.411.9.414 1.052.3.054.634-.029.915.246-.048.466-.466.559-.843.756z"/>
    <path data-name="Path 3488" d="M46.389 18.88a14.291 14.291 0 0 1 2.133-.139c-.282.612-.6 1.043-1.2 1.111-.68.077-.869.444-.783 1.067.082.592.123 1.19.2 1.783.137 1.026.051 1.181-.957 1.622-.272-.205-.2-.514-.222-.788-.075-.934-.153-1.868-.2-2.8-.022-.443-.246-.57-.647-.592a2.245 2.245 0 0 1-1.27-.158 1.365 1.365 0 0 1 1.318-.982c.519-.004 1.038-.076 1.628-.124z"/>
    <path data-name="Path 3489" d="M64.829 69.934c-.456.208-.309.454-.114.7.47.588.913 1.2 1.423 1.752a1.14 1.14 0 0 1-.009 1.674c-1.237-.779-1.425-2.682-3.255-3.024a1.015 1.015 0 0 1 .195-.915 3.821 3.821 0 0 1 2.161-1.435 1.2 1.2 0 0 1 1.277.355 1.112 1.112 0 0 1 .164 1.367c-.18.321-.222.747-.661.911-.043-1.372-.124-1.47-1.181-1.385z"/>
    <path data-name="Path 3490" d="M41.09 65.887a11.778 11.778 0 0 1 1.952.82 1.373 1.373 0 0 1-1.7.376c-.591-.259-.881-.062-.932.564.379.447 1.039.306 1.491.72-.348.327-.738.663-1.146.478-.748-.338-.886.091-1.074.626-.252.716-.5.838-1.407.757-.106-.475.233-.825.4-1.2.21-.472.194-.826-.284-1.107.245-.435.831-.372.987-.862.15-.471.245-.863-.472-1.036a1.774 1.774 0 0 1 2.185-.136z"/>
    <path data-name="Path 3491" d="M30.36 29.125a2.655 2.655 0 0 0 2.515-.835 1.884 1.884 0 0 1-.487 1.826 2.517 2.517 0 0 1-2.65.37 2.384 2.384 0 0 1-1.583-2.215 3.444 3.444 0 0 1 1.158-2.933c.248-.212.634-.5.859-.09.19.343.19.938-.263 1.087-.653.214-1.238.456-1.163 1.213a1.878 1.878 0 0 0 1.475 1.544c.025.007.051.013.139.033z"/>
    <path data-name="Path 3492" d="M23.906 58.39c-.2-.451-.5-.259-.749-.174a13.216 13.216 0 0 0-1.824.672c-.828.423-1.235-.028-1.675-.64.368-.42.9-.264 1.3-.471a2.133 2.133 0 0 1 .446-.135c1.849-.486 1.849-.486 1.681-2.379a1.081 1.081 0 0 1 1.136.738 33.042 33.042 0 0 0 1.243 3.664 1.766 1.766 0 0 1-1.558-1.275z"/>
    <path data-name="Path 3493" d="M50.543 23.958c-.251.144-.431.311-.743.274-.313-.495-.048-1.04.005-1.542.075-.7.07-1.4.1-2.1a.9.9 0 0 0-.434-.931 2.559 2.559 0 0 1 1.188-.894c.253-.146.546-.032.528.235-.107 1.611.091 3.256-.481 4.82-.014.045-.074.071-.163.138z"/>
    <path data-name="Path 3494" d="M60.159 23.126c-.248.666-.479 1.274-.7 1.887-.279.779-.869.934-1.7.854.446-1.087.872-2.111 1.284-3.14a2.868 2.868 0 0 0 .23-.819.943.943 0 0 1 1.264-.879c.36.1.357.33.246.6-.194.484-.4.962-.624 1.497z"/>
    <path data-name="Path 3495" d="M33.167 60.758c.443.114.893.105 1.116.615a25.14 25.14 0 0 1-3.153 2.951c-.385.327-.821-.026-1.179-.243-.015-.4.276-.524.474-.713.84-.8 2-1.313 2.331-2.586.011-.039.233-.024.411-.024z"/>
    <path data-name="Path 3496" d="M457.008 315.333c2.037 3.591-.089 7.639-4.156 7.779a4.81 4.81 0 0 1-5.1-4.566 5.008 5.008 0 0 1 4.325-5.509 4.877 4.877 0 0 1 4.931 2.296z" transform="translate(-407.672 -272.678)" style="fill:#ec1b24"/>
</svg>
