<svg xmlns="http://www.w3.org/2000/svg" width="148.761" height="44.775" viewBox="0 0 148.761 44.775">
    <g data-name="Group 180">
        <text data-name="4.5/5" transform="translate(0 38.775)" style="font-size:24px;font-family:ObjectSans-Heavy,Object Sans;font-weight:800;fill:#fff"><tspan x="0" y="0">4.5/5</tspan></text>
        <g data-name="Group 174">
            <g data-name="Group 73">
                <path data-name="Icon metro-star-full" d="M13.679 6.718 9.841 6.16 8.125 2.683 6.408 6.16l-3.838.558 2.778 2.707-.656 3.822 3.432-1.8 3.432 1.8-.656-3.822 2.777-2.707z" transform="translate(-2.571 -2.683)" style="fill:#d5b276"/>
                <path data-name="Icon metro-star-full" d="M13.679 6.718 9.841 6.16 8.125 2.683 6.408 6.16l-3.838.558 2.778 2.707-.656 3.822 3.432-1.8 3.432 1.8-.656-3.822 2.777-2.707z" transform="translate(10.402 -2.683)" style="fill:#d5b276"/>
                <path data-name="Icon metro-star-full" d="M13.679 6.718 9.841 6.16 8.125 2.683 6.408 6.16l-3.838.558 2.778 2.707-.656 3.822 3.432-1.8 3.432 1.8-.656-3.822 2.777-2.707z" transform="translate(23.375 -2.683)" style="fill:#d5b276"/>
                <path data-name="Icon metro-star-full" d="M13.679 6.718 9.841 6.16 8.125 2.683 6.408 6.16l-3.838.558 2.778 2.707-.656 3.822 3.432-1.8 3.432 1.8-.656-3.822 2.777-2.707z" transform="translate(36.348 -2.683)" style="fill:#d5b276"/>
                <path data-name="Icon metro-star-full" d="M13.679 6.718 9.841 6.16 8.125 2.683 6.408 6.16l-3.838.558 2.778 2.707-.656 3.822 3.432-1.8 3.432 1.8-.656-3.822 2.777-2.707z" transform="translate(49.321 -2.683)" style="fill:#d5b276"/>
            </g>
        </g>
        <g data-name="Group 175">
            <path data-name="Path 21" d="M25.957 34.61H8.652A8.652 8.652 0 0 1 0 25.956V8.652A8.652 8.652 0 0 1 8.653 0h17.3a8.652 8.652 0 0 1 8.657 8.653v17.3a8.652 8.652 0 0 1-8.653 8.652" transform="translate(79 10.118)" style="fill-rule:evenodd;fill:#d22323"/>
            <path data-name="Path 22" d="M16.223 9.822h9.734a4.867 4.867 0 0 0 .5-9.709c-.168-.009-.33-.025-.5-.025H8.652A8.652 8.652 0 0 0 0 8.741v17.3A16.223 16.223 0 0 1 16.223 9.822" transform="translate(79 10.078)" style="fill:#f03c3c;fill-rule:evenodd"/>
            <path data-name="Path 23" d="M40.652 24.74a8.652 8.652 0 1 0 8.648 8.653v-17.3a8.652 8.652 0 0 1-8.653 8.652" transform="translate(64.305 2.73)" style="fill:#b40a0a;fill-rule:evenodd"/>
            <path data-name="Path 24" d="M23.506 8.455a.935.935 0 0 1 .984.932c.005 1.9.005 6.224.005 9.617a1.25 1.25 0 0 1-2.331.628c-1.709-2.94-3.888-6.693-4.845-8.342a.933.933 0 0 1-.092-.739.946.946 0 0 1 .481-.571 15.515 15.515 0 0 1 5.8-1.526zm6.176 8.089a.956.956 0 0 1 .644-.378.944.944 0 0 1 .719.21 10.168 10.168 0 0 1 2.866 4.181.93.93 0 0 1-.681 1.209c-1.287.285-3.6.782-5.527 1.195A1.25 1.25 0 0 1 26.432 21c1.141-1.562 2.5-3.429 3.25-4.457zm-8.176 5.776a1.25 1.25 0 0 1-.124 2.333l-5.527 1.785a.938.938 0 0 1-1.211-.711 10.15 10.15 0 0 1 .449-5.168.932.932 0 0 1 .514-.528.921.921 0 0 1 .73.008c1.189.517 3.363 1.48 5.169 2.281zM33.2 26.492a.937.937 0 0 1 .584 1.23 10.147 10.147 0 0 1-3.272 4.23.928.928 0 0 1-1.347-.286c-.7-1.185-1.974-3.387-3.018-5.183a1.25 1.25 0 0 1 1.471-1.816l5.582 1.825zm-8.7 6.49a.936.936 0 0 1-1.017.934 10.073 10.073 0 0 1-5.054-2.016.929.929 0 0 1-.346-.649.941.941 0 0 1 .233-.7c.9-1.018 2.612-2.923 4.007-4.476a1.25 1.25 0 0 1 2.179.835z" transform="translate(72.344 6.236)" style="fill-rule:evenodd;fill:#fff"/>
            <text data-name="Yelp" transform="translate(117.761 32.947)" style="font-size:16px;font-family:Roboto-Regular,Roboto;fill:#fff"><tspan x="0" y="0">Yelp</tspan></text>
        </g>
    </g>
</svg>
