<svg data-name="Layer 32" xmlns="http://www.w3.org/2000/svg" width="63.408" height="51.136" viewBox="0 0 63.408 51.136">
    <path data-name="Path 105" d="M64.242 23.827a1.023 1.023 0 0 0-.856-.463H46v-8.182h2.045a1.023 1.023 0 0 0 1.023-1.023V8.023A1.023 1.023 0 0 0 48.045 7H22.477a1.023 1.023 0 0 0-1.023 1.023v6.136a1.023 1.023 0 0 0 1.023 1.023h2.045v8.182h-8.181a1.023 1.023 0 0 0-.937.614L1.086 56.7a1.023 1.023 0 0 0 .937 1.432h47.045a1.023 1.023 0 0 0 .932-.609l1.518-3.477h11.868a1.023 1.023 0 0 0 1.023-1.023V24.386H64.4a1.015 1.015 0 0 0-.16-.559zm-2.42 1.582L55.111 40.75h-9.018l6.712-15.341zm-11.25 0L43.861 40.75H33.82l1.339-3.068h5.727a1.023 1.023 0 0 0 .92-.566l4.094-8.182a1.023 1.023 0 0 0 .1-.457v-3.068zm-24 10.227V15.182h13.3v20.454zm15.341-3.31V15.182h2.045v13.054zM23.5 13.136V9.045h23.523v4.091zm2.045 24.545h7.385l-1.341 3.069H21.548l2.975-6.8v2.709a1.023 1.023 0 0 0 1.022 1.023zM17.01 25.409h7.513v3.439l-5.207 11.9H10.3zM3.586 56.091 9.4 42.8h9.018L12.6 56.091zm11.25 0 5.816-13.3h10.042l-5.817 13.3zm12.273 0 5.816-13.3h10.042l-5.817 13.3zm21.29 0h-9.017L45.2 42.8h9.018zM62.364 52h-9.942l9.942-22.725z" transform="translate(-1.001 -7)" style="fill:#fff"/>
</svg>
