<svg xmlns="http://www.w3.org/2000/svg" width="149.08" height="25.507" viewBox="0 0 149.08 25.507">
    <g data-name="Group 94">
        <path data-name="Path 6" d="M9.781-3.589c5.373 0 8.891-2.471 8.891-6.286 0-4.647-4.432-5.346-7.71-5.829-2.23-.322-4.137-.564-4.137-2.015 0-1.075 1.075-1.827 2.874-1.827 1.934 0 3.2.967 3.2 2.659h5.131c0-3.976-3.412-6.716-8.515-6.716-5.077 0-8.354 2.471-8.354 6.286 0 4.943 5 5.346 8.3 5.8 1.959.272 3.539.595 3.539 1.992 0 1.181-1.177 1.853-3 1.853-2.31 0-3.626-1.048-3.653-2.659H1.024c0 3.975 3.492 6.742 8.757 6.742zm18.132-.054c3.546 0 6.393-1.585 7.092-4.191l-4.325-.778a2.653 2.653 0 0 1-2.5 1.5 2.814 2.814 0 0 1-2.847-2.444h10.129a10.165 10.165 0 0 0 .081-1.37c0-4.432-3.009-7.28-7.575-7.28-4.593 0-7.817 2.821-7.817 7.226-.001 4.463 3.169 7.337 7.762 7.337zm-2.633-8.6a2.629 2.629 0 0 1 2.579-2.5 2.662 2.662 0 0 1 2.606 2.5zm12.035 8.251h5.023v-7.629a2.163 2.163 0 0 1 2.1-2.337 1.99 1.99 0 0 1 1.93 2.258v7.71h5.023v-8.65c0-3.2-2.015-5.534-4.889-5.534-1.639 0-2.794.752-3.9 2.364h-.269v-2.042h-5.018zm22.215.349a10.081 10.081 0 0 0 3.035-.484v-3.491a6.205 6.205 0 0 1-1.343.188 1.626 1.626 0 0 1-1.639-1.8v-5.05h2.9v-3.573h-2.9v-4.325h-3.947l-.913 4.325h-1.962v3.573h1.773v5.292c0 3.196 1.966 5.345 4.997 5.345zm7.387-15.715a2.71 2.71 0 0 0 2.874-2.767 2.689 2.689 0 0 0-2.874-2.74 2.7 2.7 0 0 0-2.847 2.74 2.717 2.717 0 0 0 2.848 2.768zM64.42-3.992h5.023v-13.861H64.42zm7.468 0h5.023v-7.629a2.163 2.163 0 0 1 2.1-2.337A1.99 1.99 0 0 1 80.94-11.7v7.71h5.023v-8.65c0-3.2-2.015-5.534-4.889-5.534-1.639 0-2.794.752-3.9 2.364h-.269v-2.042h-5.018zm23.478.349c3.546 0 6.393-1.585 7.092-4.191l-4.325-.779a2.653 2.653 0 0 1-2.5 1.5 2.814 2.814 0 0 1-2.847-2.444h10.127a10.163 10.163 0 0 0 .081-1.37c0-4.432-3.009-7.28-7.575-7.28-4.593 0-7.817 2.821-7.817 7.226-.002 4.464 3.17 7.338 7.763 7.338zm-2.633-8.6a2.629 2.629 0 0 1 2.579-2.5 2.662 2.662 0 0 1 2.606 2.5zm12.034 8.247h5.023v-20.035h-5.023z" transform="translate(39.29 26.98)" style="fill:#a1a1a1"/>
        <path d="m13.507 0 16.664 16.6v8.91h-7.777V19.8L10.291 7.745H7.777v17.762H0V0zm8.888 8.852V0h7.777v8.852z" style="fill:#a1a1a1"/>
    </g>
</svg>
