<svg xmlns="http://www.w3.org/2000/svg" width="179.946" height="38.24" viewBox="0 0 179.946 38.24">
    <g data-name="Group 126">
    <text data-name="4.5/5" transform="translate(0 29)" style="fill:#fff;font-size:24px;font-family:ObjectSans-Heavy,Object Sans;font-weight:800"><tspan x="0" y="0">4.5/5</tspan></text>
        <g data-name="Group 84">
            <path data-name="Path 21" d="M28.6 38.13H9.533A9.532 9.532 0 0 1 0 28.6V9.533A9.532 9.532 0 0 1 9.534 0H28.6a9.532 9.532 0 0 1 9.53 9.534V28.6a9.532 9.532 0 0 1-9.53 9.53" transform="translate(59.02 .058)" style="fill-rule:evenodd;fill:#d22323"/>
            <path data-name="Path 22" d="M17.873 10.812H28.6a5.362 5.362 0 0 0 .548-10.7c-.185-.01-.363-.027-.548-.027H9.533A9.532 9.532 0 0 0 0 9.622v19.064a17.873 17.873 0 0 1 17.873-17.874" transform="translate(59.02 .022)" style="fill-rule:evenodd;fill:#f03c3c"/>
            <path data-name="Path 23" d="M41.533 25.621a9.533 9.533 0 1 0 9.533 9.533V16.088a9.532 9.532 0 0 1-9.534 9.533" transform="translate(46.085 -6.445)" style="fill:#b40a0a;fill-rule:evenodd"/>
            <path data-name="Path 24" d="M24.423 8.455a1.03 1.03 0 0 1 1.084 1.027c.006 2.089.006 6.857.006 10.595a1.377 1.377 0 0 1-2.568.692c-1.883-3.239-4.284-7.374-5.338-9.191a1.028 1.028 0 0 1-.1-.814 1.042 1.042 0 0 1 .53-.629 17.093 17.093 0 0 1 6.387-1.681zm6.8 8.912a1.053 1.053 0 0 1 .709-.416 1.041 1.041 0 0 1 .792.232 11.2 11.2 0 0 1 3.158 4.606 1.024 1.024 0 0 1-.751 1.332c-1.418.314-3.968.861-6.089 1.316a1.377 1.377 0 0 1-1.4-2.159c1.257-1.721 2.758-3.777 3.581-4.91zm-9.008 6.364a1.378 1.378 0 0 1-.137 2.57l-6.089 1.967a1.033 1.033 0 0 1-1.335-.783 11.183 11.183 0 0 1 .494-5.693 1.026 1.026 0 0 1 .566-.581 1.015 1.015 0 0 1 .8.009c1.32.567 3.715 1.629 5.705 2.511zm12.881 4.6a1.032 1.032 0 0 1 .643 1.355 11.18 11.18 0 0 1-3.6 4.66 1.022 1.022 0 0 1-1.483-.315c-.769-1.305-2.175-3.731-3.324-5.711a1.377 1.377 0 0 1 1.621-2l6.147 2.007zm-9.58 7.151a1.032 1.032 0 0 1-1.12 1.03 11.1 11.1 0 0 1-5.571-2.217 1.024 1.024 0 0 1-.381-.716 1.037 1.037 0 0 1 .256-.77c.995-1.121 2.878-3.22 4.415-4.931a1.377 1.377 0 0 1 2.4.92z" transform="translate(53.161 -3.359)" style="fill:#fff;fill-rule:evenodd"/>
             <text data-name="4.5" transform="translate(110 27.418)" style="font-size:18px;font-family:Object-sans;font-weight:500;fill:#fff"><tspan x="0" y="0">Yelp</tspan></text>
        </g>
    </g>
</svg>
